<svg width="656" height="549" viewBox="0 0 656 549" fill="none" xmlns="http://www.w3.org/2000/svg">
<path d="M475.526 128.072L481.281 142.936C481.402 143.243 481.601 143.525 481.838 143.749C482.087 143.973 482.382 144.133 482.702 144.229L486.248 145.24C441.907 196.117 383.785 250.098 304.922 301.57C220.907 356.408 120.652 397.741 64.1871 488.612C63.7646 489.297 63.4958 490.071 63.419 490.878C63.3421 491.684 63.4574 492.497 63.7454 493.253L68.3158 505.031C68.7063 506.048 69.3336 506.964 70.1402 507.7C70.9467 508.436 71.9197 508.98 72.9695 509.281L209.161 548.219C210.211 548.514 211.311 548.495 212.348 548.168C213.385 547.835 214.301 547.208 214.979 546.363C271.943 475.521 333.913 420.843 404.326 366.164C508.697 285.099 566.839 197.73 580.934 174.001C581.177 173.585 581.555 173.265 582.009 173.085C582.458 172.913 582.951 172.881 583.411 173.015L600.784 177.982C601.098 178.072 601.437 178.085 601.763 178.008C602.083 177.931 602.384 177.784 602.634 177.56C602.884 177.342 603.076 177.06 603.185 176.747C603.3 176.44 603.332 176.1 603.274 175.774L588.827 85.2358C588.583 83.7251 588.187 82.2528 587.636 80.8253L583.098 69.124C582.925 68.6759 582.656 68.2663 582.31 67.9334C581.965 67.6005 581.555 67.3445 581.101 67.178C580.646 67.018 580.16 66.954 579.686 66.9988C579.206 67.0436 578.738 67.1909 578.322 67.4277L476.403 125.608C475.987 125.851 475.667 126.229 475.507 126.677C475.347 127.131 475.353 127.631 475.526 128.072Z" fill="#00FFF5"/>
<path opacity="0.6" d="M495.082 135.037C495.293 134.793 495.434 134.505 495.504 134.192C495.568 133.884 495.555 133.558 495.459 133.251C495.37 132.95 495.203 132.668 494.973 132.444C494.749 132.22 494.467 132.06 494.16 131.97L475.52 126.645C475.347 127.099 475.347 127.611 475.526 128.072L481.281 142.936C481.402 143.243 481.601 143.525 481.838 143.749C482.087 143.973 482.382 144.133 482.702 144.229L486.248 145.24C486.248 145.24 492.329 138.256 495.082 135.037Z" fill="#00FFF5"/>
<path d="M486.248 145.24L486.888 144.51C489.833 141.156 492.329 138.256 495.082 135.037C495.293 134.793 495.434 134.505 495.504 134.192C495.568 133.884 495.555 133.558 495.459 133.251C495.37 132.95 495.203 132.668 494.973 132.444C494.749 132.22 494.467 132.06 494.16 131.97L476.339 126.875L475.52 126.645" stroke="#0DB2AC" stroke-width="2" stroke-linecap="round" stroke-linejoin="round"/>
<path opacity="0.6" d="M603.274 175.774L588.827 85.2356C588.583 83.7313 588.186 82.2526 587.636 80.8251L583.098 69.1238C582.886 68.5669 582.521 68.074 582.048 67.7028L596.598 158.881C596.642 159.15 596.617 159.419 596.527 159.675C596.438 159.931 596.278 160.155 596.079 160.334C595.881 160.513 595.631 160.641 595.369 160.699C595.106 160.757 594.831 160.757 594.568 160.68L576.991 155.648C576.421 155.488 575.826 155.52 575.282 155.738C574.738 155.949 574.283 156.34 573.982 156.839C559.58 181.003 501.489 267.976 397.553 348.695C327.147 403.38 265.171 458.052 208.207 528.894C207.528 529.745 206.613 530.373 205.576 530.706C204.545 531.038 203.438 531.051 202.388 530.75L63.4124 491.018C63.3548 491.78 63.47 492.542 63.7453 493.252L68.3093 505.03C68.7062 506.048 69.3271 506.97 70.14 507.706C70.9466 508.442 71.9132 508.98 72.963 509.281L209.161 548.219C210.204 548.514 211.311 548.494 212.348 548.168C213.385 547.841 214.294 547.214 214.973 546.363C271.943 475.521 333.913 420.842 404.326 366.164C508.697 285.099 566.839 197.73 580.934 174.001C581.177 173.584 581.555 173.264 582.009 173.085C582.451 172.912 582.95 172.88 583.411 173.015L600.784 177.982C601.098 178.072 601.437 178.084 601.763 178.008C602.083 177.931 602.384 177.784 602.634 177.56C602.884 177.342 603.076 177.06 603.184 176.747C603.3 176.439 603.332 176.1 603.274 175.774Z" fill="#00FFF5"/>
<path d="M582.048 67.7028L582.522 70.6921L596.598 158.881C596.643 159.15 596.617 159.419 596.527 159.675C596.438 159.931 596.278 160.155 596.079 160.334C595.881 160.513 595.631 160.641 595.369 160.699C595.106 160.757 594.831 160.757 594.569 160.68L576.991 155.648C576.421 155.488 575.826 155.52 575.282 155.738C574.738 155.949 574.283 156.34 573.983 156.839C559.58 181.003 501.489 267.976 397.554 348.695C327.147 403.38 265.171 458.052 208.207 528.894C207.528 529.745 206.613 530.373 205.576 530.706C204.546 531.038 203.438 531.051 202.388 530.75L65.8514 491.716L63.4126 491.018" stroke="#0DB2AC" stroke-width="2" stroke-linecap="round" stroke-linejoin="round"/>
<path d="M229.446 61.5835L232.832 64.4064C234.573 65.7123 235.406 66.1795 235.399 66.9157C235.399 67.415 234.804 68.0743 234.221 68.6056C233.632 69.1369 232.967 69.5721 232.237 69.8986L230.041 70.8972L229.446 61.5835Z" fill="#FF6D55"/>
<path d="M225.842 50.5543C228.838 53.7997 229.088 55.6241 229.689 60.1689C230.47 66.0387 231.155 70.3915 231.559 75.5509C231.834 78.9947 228.883 82.4897 223.98 82.9314L226.617 93.2565L202.952 94.2167L202.683 86.5673L200.897 77.8937C196.608 73.9186 193.35 71.3389 192.179 64.8801C190.847 57.5828 193.619 50.74 199.009 47.2769C204.366 43.8395 219.012 43.1418 225.842 50.5543Z" fill="#FFA681"/>
<path d="M229.651 59.8425C228.902 59.9065 228.185 60.1434 227.545 60.5403C226.918 60.9307 226.386 61.4812 226.009 62.1213C224.696 64.4002 225.593 67.3831 228.019 68.785C228.902 69.2971 229.92 69.5467 230.944 69.4955C230.707 66.3653 230.291 63.2479 229.689 60.1626C229.677 60.0602 229.657 59.9513 229.651 59.8425Z" fill="#FF6D55"/>
<path d="M219.614 55.272C219.614 55.2656 219.614 55.2656 219.614 55.2592C219.614 55.2464 219.621 55.24 219.627 55.2336C219.633 55.2336 219.64 55.2336 219.646 55.2272C219.646 55.2272 219.653 55.2208 219.665 55.2208H228.659C228.845 55.2208 229.03 55.176 229.197 55.0928C229.363 55.0159 229.51 54.8943 229.626 54.7471C229.741 54.5935 229.818 54.4206 229.856 54.2414C229.894 54.0558 229.888 53.8637 229.843 53.6845C229.011 50.4839 228.051 48.1795 225.458 46.5856C222.463 44.7485 211.248 39.858 204.507 39.8516C192.384 39.8388 184.715 45.4462 182.711 50.6119C182.161 52.0394 182.283 55.144 182.526 57.7941C182.82 61.0266 182.724 64.2848 182.231 67.4918C181.815 69.9691 181.559 72.4719 181.463 74.9876C181.463 77.3048 184.388 81.9648 187.928 83.0979C192.748 84.5829 197.658 85.748 202.625 86.5737C202.632 86.5737 202.645 86.5737 202.651 86.5737C202.657 86.5673 202.664 86.5609 202.67 86.5609C202.677 86.5545 202.683 86.5481 202.683 86.5417C202.683 86.5353 202.689 86.5289 202.689 86.5225L202.638 82.7906C202.638 82.7778 202.645 82.7714 202.651 82.7586C202.651 82.7586 202.651 82.7522 202.664 82.7458C202.67 82.7394 202.683 82.733 202.683 82.733C202.696 82.733 202.709 82.733 202.715 82.7394C203.662 83.1363 213.514 87.0986 224.364 85.2871C234.036 83.674 237.761 78.8475 238.766 75.7941C238.811 75.6405 238.818 75.4741 238.786 75.3204C238.76 75.1668 238.69 75.0132 238.587 74.8916C238.485 74.77 238.35 74.6739 238.203 74.6163C238.056 74.5523 237.896 74.5267 237.736 74.5523C234.388 74.8916 228.128 74.3411 224.3 70.3916C220.069 66.0196 219.64 56.0977 219.614 55.272Z" fill="#3A352E"/>
<path opacity="0.6" d="M202.638 82.701C202.638 82.701 212.938 87.1882 224.37 85.2807C228.589 84.5829 231.68 83.2643 233.902 81.7536C222.059 86.0552 215.799 73.2913 199.188 72.9008C188.844 72.6576 184.792 69.0409 182.43 66.2372L182.404 66.2564C182.353 66.6725 182.295 67.0821 182.231 67.4854C181.815 69.9627 181.559 72.4719 181.463 74.9876C181.463 77.3048 184.388 81.9648 187.928 83.0979C192.748 84.5829 197.658 85.7415 202.625 86.5673C202.632 86.5737 202.645 86.5673 202.651 86.5673C202.657 86.5673 202.664 86.5609 202.67 86.5609C202.677 86.5545 202.683 86.5481 202.683 86.5417C202.683 86.5289 202.689 86.5289 202.689 86.5161L202.638 82.701Z" fill="#2D2924"/>
<path d="M256.824 51.1111C256.824 51.1111 256.817 51.1111 256.817 51.1047L252.356 48.525C251.415 47.9745 250.378 47.6097 249.296 47.4496L246.985 47.0976C246.979 47.0976 246.972 47.0912 246.966 47.0912L240.424 43.7434H240.418L237.742 42.8472C237.736 42.8472 237.729 42.8472 237.729 42.8408C237.646 42.796 236.731 42.2263 236.09 41.7334C235.418 41.2085 234.375 42.0278 234.753 43.2185C235.124 44.4027 236.961 45.3308 236.987 45.3436L237.019 45.3629C237.031 45.3693 237.038 45.3757 237.038 45.3885C237.044 45.4013 237.051 45.4077 237.044 45.4205C237.044 45.4333 237.038 45.4397 237.031 45.4525C237.019 45.4589 237.006 45.4653 236.999 45.4653L236.609 45.4909C236.609 45.4909 236.609 45.4909 236.603 45.4909C236.519 45.4781 235.412 45.3564 234.625 45.318C233.812 45.2732 233.639 46.5855 234.778 47.4432C235.092 47.6737 235.438 47.8593 235.802 47.9809C235.809 47.9809 235.815 47.9809 235.822 47.9873C235.828 47.9937 235.828 48.0001 235.834 48.0065C235.841 48.0129 235.841 48.0193 235.841 48.0257C235.841 48.0321 235.841 48.0385 235.834 48.0449C235.777 48.2882 235.802 48.5314 235.911 48.7491C236.026 48.9667 236.212 49.1395 236.43 49.2292C237.019 49.5108 237.633 49.7412 238.26 49.9077C238.657 50.0101 239.061 50.0677 239.47 50.0613H240.955C241.173 50.0613 241.391 50.1253 241.583 50.2213L244.303 51.668C244.31 51.6744 244.316 51.6808 244.322 51.6872C244.322 51.6872 244.329 51.7 244.329 51.7064L244.444 52.3017C244.444 52.3145 244.444 52.3209 244.444 52.3273C244.444 52.3337 244.438 52.3401 244.431 52.3465C244.425 52.3593 244.418 52.3593 244.418 52.3593C244.412 52.3657 244.399 52.3657 244.393 52.3657L242.799 52.3785C241.883 52.3849 240.968 52.2633 240.078 52.0393L238.958 51.7448C238.952 51.7448 238.945 51.7448 238.939 51.7448L237.441 51.796C237.435 51.796 237.435 51.796 237.422 51.796C237.313 51.7512 236.41 51.4055 235.642 51.1175C234.529 50.695 233.6 51.9881 234.676 53.2171C235.758 54.4461 237.14 55.3871 238.683 55.9568C239.829 56.3985 244.354 57.2306 244.578 57.269C244.585 57.2754 244.591 57.2754 244.598 57.2818C244.751 57.3714 247.44 58.8757 249.68 60.0471C251.069 60.7769 252.548 61.321 254.071 61.6666L255.652 62.0251C257.176 63.1069 258.943 63.811 260.799 64.0607L269.978 69.6873C269.985 69.6937 269.997 69.6937 270.004 69.6937C270.01 69.7001 270.017 69.6937 270.029 69.6937C270.036 69.6873 270.042 69.6873 270.049 69.6873C270.055 69.6809 270.055 69.6681 270.061 69.6617L274.862 56.4561C274.869 56.4497 274.869 56.4369 274.869 56.4305C274.869 56.4305 274.869 56.4177 274.862 56.4113C274.856 56.4049 274.856 56.3985 274.849 56.3985C274.849 56.3921 274.837 56.3857 274.83 56.3857L266.688 54.0044C264.691 52.897 262.444 52.3209 259.724 51.9625L256.824 51.1111Z" fill="#FFA681"/>
<path d="M332.863 135.876C332.806 135.37 332.217 134.941 331.148 134.736L300.416 128.757C298.476 128.38 295.66 128.866 294.156 129.839L258.981 152.512C258.29 152.96 258.002 153.428 258.066 153.844L258.264 155.271C258.341 155.764 258.93 156.186 259.98 156.391L290.712 162.364C292.645 162.741 295.461 162.255 296.966 161.288L332.147 138.609C332.819 138.174 333.113 137.706 333.062 137.297L332.863 135.876Z" fill="#0136A9"/>
<path d="M291.96 158.818C291.614 158.818 291.275 158.786 290.936 158.728L264.441 153.581C264.256 153.543 264.089 153.46 263.955 153.325C263.827 153.191 263.737 153.024 263.705 152.845C263.667 152.66 263.686 152.474 263.763 152.301C263.833 152.135 263.955 151.987 264.109 151.891L295.378 131.728C296.486 131.152 297.715 130.864 298.963 130.883C299.309 130.876 299.648 130.908 299.987 130.966L326.488 136.119C326.667 136.157 326.84 136.247 326.968 136.375C327.102 136.503 327.192 136.676 327.224 136.855C327.262 137.041 327.237 137.226 327.166 137.399C327.09 137.566 326.968 137.713 326.808 137.815L295.545 157.973C294.444 158.549 293.208 158.837 291.96 158.818Z" fill="#888A8E"/>
<path d="M249.668 150.592L254.219 148.159L263.187 143.903C263.801 143.602 264.473 143.448 265.152 143.442L268.66 143.384C269.313 143.371 269.966 143.256 270.587 143.045L272.123 142.52C272.43 142.418 272.744 142.36 273.064 142.347L274.485 142.309C275.234 142.091 275.951 141.816 276.655 141.477C277.269 141.112 278.479 142.059 277.666 143.416C276.84 144.78 274.606 146.162 274.606 146.162L269.562 148.121C269.21 148.255 268.903 148.499 268.685 148.806L266.944 151.302C266.176 152.391 265.267 153.376 264.249 154.228L262.483 155.694C262.38 155.777 262.303 155.886 262.265 156.007C262.22 156.135 262.214 156.27 262.252 156.398C262.284 156.519 262.355 156.634 262.451 156.724C262.547 156.807 262.668 156.865 262.803 156.884L269.722 158.28L264.48 160.776C263.526 161.231 262.508 161.525 261.458 161.64L253.995 162.492C253.995 162.492 246.928 161.205 249.668 150.592Z" fill="#FFA681"/>
<path d="M311.951 132.061L301.498 133.859L302.272 139.255C302.298 139.415 302.368 139.569 302.483 139.684C302.592 139.806 302.739 139.889 302.899 139.921L307.246 140.76C307.886 140.888 308.545 140.76 309.089 140.408L312.373 138.289C312.501 138.212 312.604 138.09 312.661 137.956C312.725 137.815 312.751 137.662 312.725 137.514L311.951 132.061Z" fill="#00184A"/>
<path d="M310.088 119.073C310.063 118.881 309.967 118.695 309.832 118.554C309.698 118.407 309.519 118.311 309.326 118.279L304.987 117.427C304.423 117.319 303.828 117.434 303.341 117.748L300.051 119.866C299.898 119.962 299.776 120.11 299.706 120.27C299.629 120.436 299.603 120.622 299.622 120.801L301.498 133.859L307.368 134.999C307.381 134.999 307.4 134.999 307.406 134.992L311.951 132.061L310.088 119.073Z" fill="#115DFF"/>
<path d="M309.544 134.333L287.998 138.033L289.265 146.834C289.284 147.001 289.361 147.148 289.47 147.27C289.585 147.385 289.732 147.462 289.892 147.494L300.486 149.555C301.126 149.683 301.792 149.555 302.336 149.203L310.459 143.967C310.587 143.877 310.69 143.762 310.747 143.628C310.811 143.487 310.83 143.339 310.811 143.186L309.544 134.333Z" fill="#0136A9"/>
<path d="M308.2 129.487L297.612 127.426C297.043 127.311 296.454 127.432 295.961 127.74L287.831 132.982C287.678 133.085 287.556 133.225 287.486 133.392C287.409 133.558 287.383 133.738 287.409 133.923L287.998 138.033L300.122 140.388C300.141 140.395 300.147 140.388 300.166 140.382L309.544 134.333L308.962 130.287C308.936 130.089 308.846 129.91 308.712 129.762C308.577 129.622 308.398 129.519 308.2 129.487Z" fill="#0136A9"/>
<path d="M279.35 124.277L271.54 125.627L275.605 153.978C275.624 154.138 275.701 154.286 275.81 154.407C275.925 154.529 276.072 154.606 276.232 154.638L279.094 155.194C279.734 155.323 280.393 155.194 280.944 154.836L283.069 153.46C283.197 153.383 283.299 153.268 283.363 153.127C283.421 152.992 283.446 152.839 283.421 152.692L279.35 124.277Z" fill="#115DFF"/>
<path d="M278.434 122.414L275.586 121.864C275.016 121.748 274.421 121.864 273.934 122.177L271.803 123.553C271.649 123.649 271.527 123.79 271.451 123.957C271.38 124.13 271.355 124.309 271.374 124.494L271.54 125.627L275.919 126.479C275.932 126.479 275.951 126.479 275.957 126.466L279.35 124.277L279.196 123.208C279.164 123.022 279.074 122.837 278.946 122.689C278.806 122.548 278.633 122.452 278.434 122.414Z" fill="#447FFF"/>
<path d="M223.045 173.623C253.579 174.033 265.331 173.213 269.249 171.223C269.249 171.223 270.535 166.223 270.068 163.9C269.652 161.839 266.675 156.794 266.675 156.794C266.074 154.836 265.241 151.731 264.243 148.243C263.654 146.188 263.654 144.005 264.249 141.944C265.478 137.661 265.786 132.457 264.685 129.538C263.712 126.946 260.889 122.503 258.507 118.08C258.501 118.067 258.501 118.061 258.501 118.042C258.501 118.035 258.514 118.023 258.52 118.01C259.621 117.158 286.09 96.5915 295.711 88.4236C298.726 85.8888 301.517 83.0979 304.039 80.0765C304.775 79.1995 305.326 78.1818 305.652 77.0872C305.991 75.9862 306.094 74.834 305.966 73.6945C305.838 72.5551 305.486 71.4541 304.922 70.4555C304.359 69.457 303.597 68.5864 302.688 67.8823C295.852 62.6909 290.257 61.1483 289.88 61.0458C289.86 61.0394 289.854 61.0266 289.848 61.0202L289.38 60.2265C289.073 59.7016 288.657 59.2471 288.17 58.8822C287.671 58.5174 287.108 58.2613 286.513 58.1269L275.823 55.6817C275.189 55.5344 274.523 55.5152 273.877 55.6368C273.23 55.7585 272.622 56.0145 272.084 56.3858C268.263 59.0807 267.066 63.8303 267.226 67.575C267.283 68.8232 267.616 70.0459 268.199 71.1533C268.775 72.2607 269.588 73.2273 270.58 73.989C272.622 75.5381 274.754 76.9655 276.962 78.2586C276.975 78.2586 276.981 78.265 276.988 78.2714C276.994 78.2842 276.994 78.2906 276.994 78.3034C276.994 78.3098 276.988 78.3226 276.981 78.329C276.975 78.3354 276.968 78.3418 276.962 78.3482L257.592 87.2778H252.657C251.505 87.2778 250.384 87.6299 249.437 88.2828C247.478 89.6334 245.603 91.0929 243.804 92.6356C243.804 92.6356 238.952 93.2309 231.034 94.2167C231.021 94.2231 231.008 94.2167 231.002 94.2103C230.989 94.2103 230.982 94.2039 230.976 94.1975L228.921 90.9713C228.646 90.536 228.262 90.1775 227.814 89.9279C227.366 89.6782 226.86 89.5374 226.348 89.531C221.688 89.4606 208.521 89.275 202.753 89.4734C202.529 89.4798 202.312 89.531 202.1 89.627C201.902 89.7231 201.716 89.8639 201.569 90.0239C201.415 90.1967 201.3 90.3888 201.223 90.6C201.153 90.8112 201.121 91.0417 201.134 91.2657L201.614 98.9215C201.62 98.9279 201.614 98.9471 201.614 98.9535C201.607 98.9599 201.595 98.9727 201.582 98.9727C197.933 100.458 189.368 103.044 186.341 104.446C183.3 105.86 178.115 111.474 182.186 127.144C184.619 136.49 188.933 148.211 188.933 148.211C188.933 148.211 193.1 163.874 198.785 176.798C199.585 178.629 201.031 180.101 202.856 180.927C204.674 181.753 206.728 181.874 208.636 181.279C212.387 180.069 216.023 178.539 219.492 176.696L223.045 173.623Z" fill="#125EFF"/>
<path opacity="0.6" d="M304.039 80.0828C304.91 79.0394 305.511 77.804 305.806 76.479C306.107 75.1539 306.081 73.7777 305.736 72.4655L303.636 75.2564C301.824 77.6632 299.36 79.5067 296.531 80.5565L280.765 86.4584C275.567 88.3979 270.612 90.9328 265.991 94.0054L257.976 99.3312C251.614 103.569 244.438 106.43 236.904 107.742L234.881 108.094C233.825 108.274 232.826 108.715 231.975 109.368C231.124 110.027 230.445 110.879 229.997 111.858C229.549 112.831 229.344 113.907 229.402 114.976C229.459 116.051 229.779 117.094 230.33 118.016C231.386 119.885 232.583 121.678 233.902 123.361C237.307 127.349 241.423 130.658 246.051 133.117C246.89 133.545 247.811 133.789 248.746 133.827C249.687 133.859 250.628 133.68 251.492 133.315C252.356 132.944 253.137 132.393 253.758 131.689C254.392 130.985 254.859 130.159 255.128 129.257L258.482 118.061C258.488 118.048 258.495 118.035 258.501 118.035C259.186 117.498 286.014 96.6619 295.711 88.4236C298.726 85.8951 301.517 83.0978 304.039 80.0828Z" fill="#044EE9"/>
<path opacity="0.6" d="M224.492 94.9785L226.073 89.5311C221.195 89.4479 208.418 89.2815 202.76 89.4671C202.529 89.4799 202.312 89.5311 202.107 89.6271C201.902 89.7231 201.723 89.8576 201.569 90.024C201.422 90.1904 201.307 90.3889 201.23 90.6001C201.153 90.8113 201.121 91.0354 201.14 91.2658L201.62 98.9216C201.62 98.928 201.62 98.9408 201.614 98.9536C201.608 98.96 201.601 98.9664 201.588 98.9728C199.316 99.8946 195.149 101.245 191.603 102.468C191.935 104.715 193.644 107.966 201.031 105.688C210.716 102.692 216.509 96.5212 224.492 94.9785Z" fill="#044EE9"/>
<path opacity="0.6" d="M241.186 166.838C237.589 166.128 233.959 165.641 230.304 165.372L216.81 164.38C215.799 164.303 214.858 163.836 214.179 163.087C213.501 162.338 213.136 161.346 213.168 160.335L213.181 160.079C213.219 158.824 212.784 157.601 211.958 156.654C208.162 152.308 197.12 139.563 194.585 135.748L196.794 159.374C197.159 163.324 197.056 167.305 196.487 171.236C197.223 173.118 197.997 175 198.797 176.824C199.598 178.648 201.044 180.108 202.862 180.934C204.674 181.753 206.722 181.874 208.623 181.286C212.374 180.076 216.017 178.539 219.499 176.696L223.045 173.623C249.443 173.982 261.804 173.419 267.194 171.972L241.186 166.838Z" fill="#044EE9"/>
<path d="M221.016 173.239C221.016 173.239 217.066 170.007 215.108 168.49C214.442 167.971 213.91 167.299 213.552 166.537C213.194 165.776 213.027 164.943 213.053 164.105L213.206 159.214C213.226 158.542 213.002 157.896 212.579 157.377C208.354 152.25 199.841 142.399 194.585 135.748C192.134 132.65 188.549 125.903 188.549 125.903" stroke="#044EE9" stroke-width="2" stroke-linecap="round" stroke-linejoin="round"/>
<path d="M219.576 173.457L218.449 181.996C211.862 189.62 201.633 205.571 198.682 219.103C195.782 232.418 191.199 296.846 191.058 298.804C191.058 298.824 191.052 298.83 191.046 298.843C191.039 298.849 191.02 298.855 191.014 298.862C187.275 299.105 179.235 302.03 174.332 303.938C171.496 305.033 168.526 305.724 165.505 305.999L162.138 306.306C160.787 306.428 159.545 307.068 158.668 308.105C155.814 311.511 150.686 319.762 159.11 328.019C159.782 328.672 160.659 329.075 161.594 329.159L179.613 330.932C179.613 330.932 187.416 332.238 195.674 332.826C198.119 333.012 200.558 332.468 202.696 331.258C204.827 330.055 206.562 328.243 207.669 326.054C208.898 323.609 210.255 320.767 211.465 317.937C212.105 316.439 212.758 314.961 213.475 313.501C216.42 307.478 225.279 288.076 232.794 258.291C233.697 254.7 234.881 251.192 236.334 247.787L238.145 243.549C238.145 243.537 238.158 243.53 238.171 243.524C238.177 243.517 238.19 243.517 238.203 243.517C238.209 243.517 238.222 243.524 238.229 243.537C238.235 243.537 238.241 243.549 238.248 243.569C240.955 263.406 249.015 296.871 251.473 312.797C251.543 313.271 251.517 313.745 251.383 314.206C251.249 314.66 251.018 315.089 250.704 315.441L250.423 315.767C250.109 316.132 249.885 316.561 249.776 317.028C249.661 317.502 249.667 317.989 249.783 318.456L250.717 322.175C250.717 322.181 250.717 322.194 250.717 322.194C250.717 322.201 250.711 322.213 250.704 322.22C236.609 341.827 233.088 347.492 229.728 354.962C224.703 366.145 224.965 378.838 224.3 393.951C224.261 394.751 224.466 395.545 224.882 396.23C228.537 402.138 245.724 413.43 248.336 406.85L257.509 379.997C257.509 379.997 268.852 354.066 273.454 343.811C274.338 341.852 275.311 339.932 276.38 338.063C276.981 337.006 277.724 335.669 278.479 334.241C280.111 331.162 281.04 327.757 281.206 324.275C281.392 320.203 281.616 314.602 281.597 311.434C283.146 296.557 285.213 258.291 282.115 223.552C281.936 221.51 282.166 219.443 282.781 217.484C283.453 215.314 284.343 212.35 284.951 209.95C285.079 209.45 285.104 208.932 285.021 208.42C284.944 207.908 284.765 207.421 284.49 206.98L277.967 196.514C276.251 193.768 274.85 190.829 273.793 187.763L272.673 184.524C272.673 184.524 271.073 175.716 269.927 171.728C269.818 171.338 269.575 171.005 269.249 170.781C268.916 170.551 268.519 170.448 268.122 170.48C264.909 170.749 254.424 171.312 221.63 171.645C221.125 171.645 220.638 171.831 220.261 172.164C219.889 172.503 219.64 172.964 219.576 173.457Z" fill="#5F91FD"/>
<path opacity="0.6" d="M278.473 334.248C275.861 336.987 272.494 340.169 269.658 342.761C265.85 346.256 262.835 350.532 260.831 355.295L256.331 366.01L247.107 387.838C246.525 389.208 246.006 390.603 245.558 392.024L240.559 407.867C244.226 409.263 247.337 409.359 248.336 406.85L257.503 379.997C257.503 379.997 268.845 354.072 273.448 343.811C274.331 341.852 275.311 339.925 276.38 338.056C276.981 337 277.717 335.669 278.473 334.248Z" fill="#467FFA"/>
<path opacity="0.6" d="M194.579 322.13L172.066 322.015C170.562 322.009 169.071 321.849 167.611 321.541L154.501 318.77L154.565 319.564C154.873 322.246 156.153 325.132 159.098 328.013C159.776 328.672 160.653 329.076 161.594 329.159L179.613 330.932C179.613 330.932 187.41 332.238 195.667 332.827C198.113 333.012 200.558 332.468 202.689 331.258C204.827 330.055 206.556 328.243 207.67 326.054C208.758 323.878 209.961 321.381 211.062 318.859L205.589 320.53C202.017 321.612 198.305 322.156 194.579 322.13Z" fill="#467FFA"/>
<path opacity="0.6" d="M232.8 258.234C233.697 254.662 234.881 251.167 236.334 247.781L238.216 243.37C238.216 243.37 238.536 235.094 233.191 230.28C228.96 226.458 224.972 223.149 220.721 217.266C220.408 216.825 219.96 216.498 219.448 216.319C218.935 216.146 218.379 216.133 217.86 216.293C217.342 216.453 216.887 216.767 216.554 217.196C216.221 217.625 216.036 218.143 216.01 218.687C215.799 223.924 216.285 229.166 217.463 234.274C218.564 239.037 219.115 243.914 219.102 248.805V300.725C224.626 286.892 229.203 272.694 232.8 258.234Z" fill="#467FFA"/>
<path d="M219.608 55.2208C219.518 52.6731 219.537 51.2264 219.537 51.2264" stroke="#2D2924" stroke-width="2" stroke-linecap="round" stroke-linejoin="round"/>
<path d="M219.537 51.2264C218.328 55.6304 215.658 59.708 216.772 66.0707C217.892 72.4335 224.249 76.9719 226.931 77.0807" stroke="#2D2924" stroke-width="2" stroke-linecap="round" stroke-linejoin="round"/>
<path d="M205.717 40.4662C205.935 44.9982 202.222 52.1675 202.817 59.2792C203.387 66.0901 207.049 81.4465 216.509 85.6072" stroke="#2D2924" stroke-width="2" stroke-linecap="round" stroke-linejoin="round"/>
<path d="M186.149 67.6069C185.938 71.6717 187.992 79.3915 195.315 81.0494L202.638 82.7009" stroke="#2D2924" stroke-width="2" stroke-linecap="round" stroke-linejoin="round"/>
<path d="M186.136 62.1918C186.264 55.1377 184.843 49.095 186.264 45.7792" stroke="#2D2924" stroke-width="2" stroke-linecap="round" stroke-linejoin="round"/>
<path d="M238.216 243.37C237.902 239.638 237.633 234.562 233.191 230.28L223.801 221.209" stroke="#467FFA" stroke-width="2" stroke-linecap="round" stroke-linejoin="round"/>
<path d="M226.943 394.246C226.406 397.971 225.042 407.323 224.012 413.622C223.736 415.306 222.866 416.829 221.566 417.917L216.413 422.225L236.545 443.362L237.633 430.656L246.14 403.976C247.491 400.346 233.472 389.765 228.313 392.306C227.942 392.492 227.628 392.767 227.391 393.106C227.148 393.446 226.994 393.843 226.943 394.246Z" fill="#FFA681"/>
<path d="M144.49 330.356L155.647 327.904H162.663C162.887 327.911 163.118 327.879 163.329 327.821C167.509 326.566 169.403 319.672 168.347 315.095C167.291 310.525 163.092 308.848 161.044 308.291L156.857 307.184L143.511 323.244L144.49 330.356Z" fill="#FFA681"/>
<path d="M259.845 198.613H240.879C240.341 198.613 239.822 198.402 239.445 198.018C239.067 197.64 238.849 197.122 238.849 196.584V195.752C238.849 195.221 239.067 194.702 239.445 194.318C239.822 193.934 240.341 193.723 240.879 193.723H259.845C260.383 193.723 260.895 193.934 261.279 194.318C261.657 194.702 261.868 195.221 261.868 195.752V196.584C261.868 197.122 261.657 197.64 261.279 198.018C260.895 198.402 260.383 198.613 259.845 198.613Z" stroke="#467FFA" stroke-width="2" stroke-linecap="round" stroke-linejoin="round"/>
<path d="M219.537 158.388C224.818 155.719 233.639 146.905 252.042 119.527" stroke="#044EE9" stroke-width="2" stroke-linecap="round" stroke-linejoin="round"/>
<path d="M231.002 94.2229C227.667 94.5238 221.72 95.3943 221.72 95.3943" stroke="#044EE9" stroke-width="2" stroke-linecap="round" stroke-linejoin="round"/>
<path d="M258.488 118.035C265.235 110.962 281.929 91.5793 281.929 91.5793" stroke="#044EE9" stroke-width="2" stroke-linecap="round" stroke-linejoin="round"/>
<path d="M237.019 45.3629L239.829 46.7328C240.219 46.9248 240.571 47.1808 240.866 47.5009L244.323 51.6809" stroke="#F59066" stroke-width="2" stroke-linecap="round" stroke-linejoin="round"/>
<path d="M156.825 301.224C156.94 301.16 157.062 301.122 157.183 301.102C157.312 301.096 157.446 301.109 157.561 301.147L158.374 301.416C158.912 301.595 159.392 301.896 159.795 302.293C160.198 302.69 160.499 303.17 160.679 303.701C161.223 305.238 161.543 306.838 161.632 308.464C161.632 308.464 160.634 314.737 156.076 322.207L154.885 324.172C154.22 325.267 153.663 326.419 153.234 327.622L151.928 331.226C151.531 332.314 151.013 333.351 150.379 334.318L143.933 344.176C140.022 350.699 134.421 358.188 131.073 357.663C126.24 356.517 136.194 313.348 156.825 301.224Z" fill="#0136A9"/>
<path d="M127.834 358.355C131.118 358.387 133.358 356.575 135.477 353.688C136.777 351.909 141.449 345.002 143.991 341.225C145.085 339.599 145.745 337.724 145.917 335.771L146.532 328.435C146.73 326.195 147.543 324.051 148.888 322.252C150.686 319.839 153.356 316.286 155.66 313.354C158.765 309.424 160.013 304.245 158.534 301.026C157.894 299.669 156.799 298.587 155.436 297.966C153.509 297.006 149.668 296.25 145.604 301.423C143.126 304.578 139.804 309.405 137.91 312.209C136.885 313.713 135.74 315.134 134.466 316.44L127.642 323.481C125.856 325.318 124.537 327.571 123.808 330.029C122.06 335.97 119.519 347.037 122.764 354.098C124.121 357.049 125.965 358.329 127.834 358.355Z" fill="black"/>
<path d="M207.279 431.059C207.279 431.059 207.247 430.432 207.272 429.632C207.285 428.819 207.49 428.031 207.874 427.314C208.258 426.604 208.802 425.989 209.462 425.528L219.998 418.148C220.472 417.815 221.016 417.572 221.592 417.45C222.161 417.329 222.757 417.329 223.333 417.444C225.055 417.802 227.436 418.929 229.043 422.257C231.014 426.348 232.186 432.659 232.698 435.982C232.928 437.435 233.677 438.76 234.804 439.688L236.174 440.821C236.507 441.096 236.763 441.448 236.923 441.845C237.089 442.242 237.147 442.671 237.102 443.093L236.545 448.585C236.545 448.585 236.321 456.331 236.257 458.783C236.186 461.228 238.107 467.571 237.908 469.959C237.71 472.34 235.527 473.928 235.527 473.928L219.857 454.807L207.279 431.059Z" fill="#0136A9"/>
<path d="M207.202 429.696C206.556 430.054 205.948 430.489 205.391 430.976C204.859 431.437 204.462 432.038 204.264 432.711C204.059 433.389 204.059 434.106 204.258 434.778C205.487 438.952 210.224 446.729 214.711 453.732C215.677 455.236 216.196 456.997 216.196 458.795V460.428C216.189 461.522 216.554 462.578 217.226 463.436C218.206 464.672 219.256 465.849 220.376 466.957C223.045 469.632 229.51 473.422 235.047 475.381C235.239 475.451 235.451 475.451 235.643 475.381C235.841 475.317 236.001 475.189 236.116 475.016L236.225 474.843C236.321 474.696 236.366 474.523 236.372 474.35C236.372 474.177 236.321 474.004 236.231 473.857C234.894 471.77 229.702 463.519 227.654 458.501C225.298 452.721 224.69 443.932 219.857 437.934C215.024 431.936 209.878 429.267 207.202 429.696Z" fill="black"/>
<path d="M191.052 298.855C195.699 298.375 200.961 298.183 206.025 302.075" stroke="#467FFA" stroke-width="2" stroke-linecap="round" stroke-linejoin="round"/>
<path d="M212.579 157.377C212.579 157.377 210.096 164.079 206.229 167.606" stroke="#044EE9" stroke-width="2" stroke-linecap="round" stroke-linejoin="round"/>
<path d="M277.052 78.3033C281.667 76.0309 287.281 73.432 287.281 73.432" stroke="#044EE9" stroke-width="2" stroke-linecap="round" stroke-linejoin="round"/>
<path d="M218.449 181.996L272.161 181.823" stroke="#467FFA" stroke-width="2" stroke-linecap="round" stroke-linejoin="round"/>
<path d="M282.774 217.484C282.774 217.484 280.476 202.627 277.961 196.514" stroke="#467FFA" stroke-width="2" stroke-linecap="round" stroke-linejoin="round"/>
<path d="M188.549 130.556C190.245 132.252 194.585 135.747 194.585 135.747" stroke="#044EE9" stroke-width="2" stroke-linecap="round" stroke-linejoin="round"/>
<path d="M235.854 47.9938C236.302 48.0706 237.64 48.3202 237.64 48.3202L240.731 48.429C240.731 48.429 241.096 48.5123 241.743 48.6083" stroke="#F59066" stroke-width="2" stroke-linecap="round" stroke-linejoin="round"/>
<path d="M260.377 63.8689C257.739 62.0957 260.799 52.3916 265.619 53.6846L266.682 53.9983L266.643 53.563C266.611 53.2749 266.509 52.9997 266.336 52.7564C266.176 52.5132 265.946 52.3212 265.69 52.1867C264.896 51.7835 264.064 51.4826 263.199 51.2842C262.982 51.2394 262.758 51.2202 262.54 51.2202C258.399 51.201 254.699 55.4833 255.582 61.7245C255.633 62.0893 255.774 62.4286 255.992 62.7295C256.203 63.0175 256.491 63.2607 256.818 63.4144C257.509 63.7472 258.239 64.0545 258.802 64.2849C259.109 64.4066 259.448 64.4642 259.781 64.4514C260.114 64.4322 260.434 64.3426 260.735 64.1889L260.799 64.1505C260.812 64.1505 260.818 64.1441 260.825 64.1377C260.825 64.1249 260.831 64.1185 260.831 64.1057C260.831 64.0929 260.825 64.0865 260.825 64.0801C260.818 64.0673 260.805 64.0609 260.799 64.0545L260.377 63.8689Z" fill="#0136A9"/>
<path d="M289.854 61.0331C289.854 61.0331 287.537 60.3674 286.59 60.4122C285.636 60.4634 278.562 63.2159 278.562 71.3966C278.646 73.3297 278.985 75.2373 279.567 77.0808" stroke="#044EE9" stroke-width="2" stroke-linecap="round" stroke-linejoin="round"/>
<path d="M283.894 61.5835C281.033 63.075 274.76 67.1333 274.056 75.7749" stroke="#044EE9" stroke-width="2" stroke-linecap="round" stroke-linejoin="round"/>
<path d="M651.917 339.579C653.741 338.427 655.021 336.59 655.488 334.491C655.956 332.391 655.572 330.189 654.413 328.371L634.416 296.948C634.416 296.941 634.409 296.929 634.409 296.916C634.409 296.903 634.416 296.897 634.422 296.884C644.408 288.101 650.707 275.875 652.064 262.644C653.415 249.425 649.74 236.169 641.752 225.536C633.769 214.91 622.068 207.683 608.984 205.309C595.9 202.927 582.406 205.571 571.192 212.708C559.97 219.846 551.86 230.958 548.474 243.812C545.088 256.665 546.681 270.325 552.929 282.065C559.177 293.798 569.617 302.754 582.17 307.119C594.729 311.491 608.472 310.966 620.66 305.647C620.666 305.641 620.679 305.641 620.692 305.647C620.698 305.653 620.711 305.66 620.717 305.666L640.715 337.089C641.867 338.907 643.698 340.188 645.804 340.655C647.903 341.122 650.105 340.738 651.917 339.579ZM568.548 276.848C563.997 269.692 562.063 261.178 563.088 252.754C564.105 244.337 568.01 236.534 574.142 230.67C580.275 224.807 588.251 221.254 596.707 220.607C605.163 219.967 613.58 222.278 620.525 227.149C627.471 232.014 632.515 239.139 634.794 247.313C637.072 255.481 636.451 264.187 633.033 271.951C629.615 279.709 623.604 286.047 616.038 289.881C608.472 293.709 599.805 294.797 591.528 292.96C582.035 290.841 573.771 285.048 568.548 276.848Z" fill="#8461FD"/>
<path d="M613.401 255.724L604.81 253.81C604.804 253.81 604.785 253.804 604.778 253.791C604.772 253.778 604.772 253.772 604.772 253.753L606.679 245.169C606.935 244.023 606.731 242.82 606.097 241.834C605.463 240.842 604.465 240.144 603.319 239.888C602.173 239.632 600.976 239.843 599.984 240.477C598.992 241.104 598.288 242.103 598.038 243.249L596.124 251.833C596.124 251.845 596.117 251.858 596.105 251.865C596.098 251.871 596.086 251.871 596.066 251.871L587.482 249.963C586.343 249.707 585.14 249.919 584.147 250.552C583.155 251.186 582.457 252.178 582.201 253.324C581.945 254.47 582.157 255.673 582.79 256.665C583.424 257.651 584.423 258.355 585.562 258.611L594.146 260.519C594.159 260.519 594.172 260.525 594.178 260.538C594.184 260.551 594.184 260.564 594.184 260.576L592.277 269.16C592.021 270.306 592.232 271.51 592.866 272.502C593.499 273.488 594.498 274.192 595.637 274.441C596.783 274.697 597.987 274.486 598.979 273.859C599.971 273.232 600.669 272.227 600.925 271.081L602.832 262.497C602.832 262.484 602.839 262.471 602.852 262.465C602.864 262.458 602.877 262.458 602.89 262.458L611.48 264.366C612.62 264.622 613.823 264.411 614.815 263.783C615.807 263.15 616.505 262.151 616.761 261.005C617.017 259.86 616.806 258.663 616.172 257.67C615.539 256.678 614.54 255.974 613.401 255.724Z" fill="#00FFF5"/>
<path d="M440.141 133.309C440.128 133.309 440.128 133.321 440.121 133.328C440.121 133.334 440.121 133.347 440.121 133.353C441.069 136.535 441.03 144.735 440.96 148.428C440.954 148.588 440.909 148.735 440.826 148.863C440.736 148.991 440.614 149.094 440.467 149.158C440.326 149.215 440.173 149.235 440.019 149.209C439.872 149.183 439.725 149.113 439.609 149.004C436.774 146.393 432.114 142.853 431.493 142.385C431.486 142.373 431.473 142.373 431.467 142.373C431.461 142.373 431.454 142.373 431.441 142.379C431.435 142.379 431.429 142.385 431.429 142.392C431.422 142.398 431.416 142.411 431.416 142.417C431.512 148.851 425.021 159.989 424.535 160.814C424.528 160.821 424.522 160.827 424.515 160.827C424.509 160.834 424.509 160.84 424.496 160.84C424.496 160.84 424.483 160.84 424.483 160.834C424.471 160.834 424.471 160.827 424.464 160.827C421.449 157.799 418.146 155.079 414.606 152.704C411.502 150.63 408.576 148.3 405.869 145.74C405.862 145.733 405.856 145.727 405.85 145.727C405.843 145.727 405.837 145.727 405.83 145.727C405.824 145.727 405.818 145.727 405.811 145.733C405.805 145.74 405.805 145.746 405.798 145.752L403.98 150.297C403.929 150.432 403.846 150.541 403.731 150.624C403.622 150.713 403.488 150.765 403.347 150.784C403.212 150.797 403.071 150.771 402.943 150.72C402.815 150.662 402.707 150.572 402.63 150.457C399.18 145.484 398.84 136.208 398.821 135.408C398.821 135.395 398.815 135.395 398.815 135.383C398.815 135.383 398.808 135.376 398.802 135.37L398.789 135.363C398.776 135.363 398.776 135.363 398.764 135.363L396.946 135.895C396.856 135.92 396.754 135.933 396.658 135.914C396.555 135.895 396.465 135.856 396.382 135.799C396.305 135.741 396.235 135.664 396.19 135.581C396.139 135.491 396.113 135.395 396.107 135.293C395.845 129.961 397.599 124.731 401.01 120.628C401.023 120.621 401.023 120.615 401.023 120.609C401.023 120.602 401.023 120.596 401.023 120.583C401.023 120.577 401.01 120.57 401.01 120.57C400.998 120.557 400.991 120.557 400.985 120.557C398.719 120.455 397.47 119.629 396.818 118.944C396.728 118.848 396.664 118.733 396.619 118.605C396.581 118.477 396.581 118.343 396.606 118.215C396.632 118.08 396.69 117.959 396.773 117.856C396.856 117.754 396.965 117.671 397.086 117.619C399.007 116.774 401.689 115.302 403.02 114.105C404.576 112.703 410.996 105.72 415.022 105.316C420.982 104.715 427.55 106.539 433.106 108.901C435.244 109.81 436.959 111.506 437.881 113.651C439.11 116.48 440.013 119.45 440.576 122.491C440.582 122.497 440.589 122.503 440.595 122.516C444.634 125.883 446.414 127.003 446.414 128.22C446.414 129.647 444.199 130.345 440.141 133.309Z" fill="#383838"/>
<path d="M405.798 145.752C406.342 143.992 408.288 139.671 408.288 139.671" stroke="#1D1D1D" stroke-width="2" stroke-linecap="round" stroke-linejoin="round"/>
<path d="M441.991 131.138C440.794 129.308 438.707 129.289 436.998 130.223C436.991 130.223 436.985 130.229 436.978 130.229C436.972 130.229 436.966 130.223 436.959 130.223C436.953 130.223 436.946 130.217 436.946 130.21C436.94 130.21 436.94 130.197 436.934 130.197L434.565 120.391C434.559 120.384 434.559 120.378 434.552 120.372C434.552 120.365 434.54 120.359 434.54 120.359C434.527 120.359 434.52 120.359 434.514 120.359C434.508 120.359 434.501 120.359 434.495 120.365C434.149 120.609 431.979 122.081 427.37 124.065C422.313 126.242 416.93 128.533 416.328 127.643C415.906 127.035 417.513 125.307 417.986 124.814C417.993 124.808 417.999 124.801 417.999 124.788C417.999 124.782 417.999 124.769 417.993 124.763C417.986 124.756 417.98 124.75 417.967 124.744C417.961 124.744 417.954 124.744 417.941 124.744L414.299 126.005H414.293C414.293 126.005 414.293 126.011 414.286 126.018C414.197 126.267 412.385 131.401 410.926 135.728C410.926 135.734 410.919 135.747 410.913 135.747C410.907 135.754 410.894 135.76 410.887 135.754C410.875 135.754 410.868 135.747 410.862 135.747C410.855 135.734 410.849 135.734 410.849 135.722C410.702 134.979 410.567 133.821 410.561 133.776C410.522 133.564 410.465 133.36 410.401 133.161C410.228 132.374 410.1 131.862 408.884 130.972C407.072 129.372 404.288 128.904 402.822 131.138C400.415 134.8 404.659 140.683 410.554 140.535C410.561 140.535 410.574 140.542 410.58 140.542C410.586 140.548 410.593 140.555 410.599 140.567C410.67 140.785 411.131 142.161 411.707 143.691L410.337 162.402C410.337 162.408 410.343 162.415 410.343 162.421C410.58 162.696 418.223 171.703 428.337 171.626C428.35 171.626 428.356 171.626 428.363 171.619C428.369 171.613 428.375 171.613 428.375 171.6C428.606 171.12 432.056 163.618 432.19 158.862L432.152 150.022C432.152 150.015 432.158 150.009 432.165 149.996C433.112 148.754 433.976 147.5 434.642 146.456C435.346 145.355 435.82 144.12 436.031 142.827C436.153 142.11 436.287 141.252 436.422 140.343C436.428 140.337 436.434 140.331 436.434 140.318C436.441 140.318 436.447 140.311 436.46 140.305C441.139 139.198 444.084 134.326 441.991 131.138Z" fill="#FFD3C0"/>
<path opacity="0.4" d="M437.19 135.011C436.645 134.857 436.076 134.813 435.512 134.896C434.949 134.979 434.411 135.184 433.938 135.485C433.458 135.798 433.048 136.202 432.741 136.675C432.434 137.155 432.229 137.693 432.152 138.256C432.062 138.82 432.101 139.389 432.254 139.934C432.414 140.478 432.683 140.983 433.048 141.419C433.419 141.854 433.874 142.2 434.392 142.443C434.904 142.686 435.468 142.814 436.031 142.827C436.389 140.676 436.876 137.29 437.19 135.011Z" fill="#E55845"/>
<path opacity="0.4" d="M415.79 142.827C417.992 142.827 419.778 141.041 419.778 138.839C419.778 136.637 417.992 134.851 415.79 134.851C413.588 134.851 411.802 136.637 411.802 138.839C411.802 141.041 413.588 142.827 415.79 142.827Z" fill="#E55845"/>
<path d="M436.946 130.249L437.241 131.478C437.426 132.233 437.465 133.02 437.362 133.789C437.177 135.107 436.869 137.328 436.556 139.441L436.428 140.318" stroke="#F2B89F" stroke-width="2" stroke-linecap="round" stroke-linejoin="round"/>
<path d="M423.926 145.074C423.881 144.997 423.856 144.907 423.856 144.811C423.856 144.722 423.881 144.632 423.92 144.549C423.965 144.472 424.029 144.395 424.105 144.35C424.182 144.299 424.272 144.267 424.368 144.261L427.684 143.966C427.773 143.954 427.856 143.966 427.933 144.005C428.01 144.03 428.08 144.082 428.132 144.152C428.183 144.216 428.215 144.293 428.234 144.376C428.247 144.459 428.247 144.549 428.215 144.626C427.946 145.432 427.357 146.629 426.211 146.712C425.11 146.796 424.336 145.803 423.926 145.074Z" fill="#E55845"/>
<path d="M408.634 134.339C407.648 131.817 405.229 131.036 404.492 132.297" stroke="#F2B89F" stroke-width="2" stroke-linecap="round" stroke-linejoin="round"/>
<path d="M408.634 134.339C407.687 132.573 404.691 133.545 405.658 136.01" stroke="#F2B89F" stroke-width="2" stroke-linecap="round" stroke-linejoin="round"/>
<path d="M437.407 132.534C438.495 131.529 439.827 131.42 440.339 132.297" stroke="#F2B89F" stroke-width="2" stroke-linecap="round" stroke-linejoin="round"/>
<path d="M437.401 133.462C438.559 133.264 439.865 134.262 439.174 136.016" stroke="#F2B89F" stroke-width="2" stroke-linecap="round" stroke-linejoin="round"/>
<path d="M426.167 136.772C425.968 136.989 425.834 137.252 425.757 137.533L425.322 139.089L425.315 139.095C425.283 139.172 424.637 140.516 424.714 140.939C424.829 141.611 426.288 142.398 426.999 142.347C427.825 142.289 429.047 141.284 429.041 140.619C429.041 140.164 428.273 138.986 428.228 138.909C428.221 138.903 428.221 138.897 428.221 138.897L427.709 137.488C427.594 137.168 427.389 136.887 427.12 136.675C426.98 136.573 426.8 136.515 426.621 136.535C426.442 136.554 426.282 136.637 426.167 136.772Z" fill="#E55845"/>
<path d="M437.874 130.453C437.49 129.884 436.991 129.397 436.409 129.026C435.833 128.655 435.18 128.405 434.501 128.29C431.678 127.835 428.9 129.884 427.965 132.969C427.965 132.976 427.959 132.982 427.959 132.988C427.953 132.995 427.946 132.995 427.946 132.995C427.94 133.001 427.933 133.001 427.927 133.001C427.921 133.001 427.914 133.001 427.908 133.001C427.146 132.707 426.314 132.7 425.546 132.982C425.539 132.988 425.533 132.988 425.527 132.988C425.527 132.988 425.514 132.988 425.514 132.982C425.507 132.976 425.501 132.976 425.495 132.969C425.488 132.963 425.488 132.963 425.488 132.95C425.123 131.657 424.368 130.505 423.325 129.653C422.281 128.808 420.995 128.303 419.657 128.207C418.313 128.117 416.975 128.444 415.822 129.141C414.67 129.839 413.761 130.876 413.224 132.111C413.224 132.118 413.217 132.124 413.211 132.131C413.204 132.131 413.198 132.137 413.185 132.137H412.699C412.526 132.137 412.353 132.105 412.187 132.054L408.877 130.972C409.562 131.561 410.087 132.31 410.394 133.161L411.739 133.603C412.033 133.699 412.334 133.744 412.641 133.744H412.705C412.711 133.744 412.718 133.75 412.724 133.75C412.724 133.75 412.737 133.756 412.737 133.763C412.744 133.763 412.743 133.769 412.75 133.776C412.75 133.782 412.75 133.788 412.75 133.795C412.699 134.102 412.673 134.416 412.673 134.723C412.667 135.581 412.833 136.439 413.16 137.239C413.486 138.032 413.966 138.756 414.568 139.37C415.182 139.978 415.899 140.465 416.699 140.798C417.493 141.131 418.345 141.297 419.209 141.297C420.066 141.297 420.924 141.124 421.718 140.791C422.512 140.459 423.235 139.972 423.843 139.364C424.445 138.749 424.925 138.02 425.251 137.226C425.571 136.426 425.738 135.574 425.725 134.71C425.725 134.704 425.731 134.697 425.738 134.691C425.738 134.685 425.738 134.678 425.751 134.678C426.026 134.486 426.352 134.384 426.685 134.384C427.018 134.377 427.345 134.473 427.633 134.653C427.633 134.659 427.645 134.665 427.645 134.672C427.645 134.678 427.652 134.685 427.652 134.691C427.53 136.215 427.933 137.732 428.791 138.999C429.182 139.562 429.681 140.049 430.257 140.42C430.84 140.791 431.486 141.041 432.165 141.156C432.427 141.201 432.69 141.22 432.952 141.22C435.736 141.22 438.316 138.877 438.911 135.645C439.084 134.755 439.084 133.84 438.911 132.944C438.732 132.054 438.38 131.202 437.874 130.453ZM419.209 139.646C418.242 139.646 417.288 139.351 416.475 138.82C415.669 138.276 415.042 137.508 414.664 136.611C414.293 135.709 414.197 134.717 414.389 133.763C414.574 132.809 415.042 131.932 415.733 131.247C416.424 130.562 417.301 130.095 418.255 129.897C419.209 129.711 420.194 129.807 421.091 130.185C421.993 130.55 422.761 131.183 423.299 131.99C423.843 132.803 424.131 133.75 424.131 134.729C424.131 136.029 423.606 137.277 422.691 138.205C421.763 139.127 420.515 139.639 419.209 139.646ZM436.556 131.382C436.946 131.958 437.209 132.611 437.337 133.289C437.471 133.974 437.465 134.678 437.33 135.357C436.838 138.039 434.629 139.927 432.427 139.575C431.96 139.492 431.512 139.313 431.115 139.057C430.718 138.801 430.379 138.468 430.11 138.071C429.732 137.488 429.463 136.842 429.329 136.157C429.201 135.478 429.201 134.774 429.342 134.096C429.796 131.631 431.691 129.833 433.701 129.833C433.887 129.833 434.066 129.852 434.245 129.877C434.712 129.961 435.16 130.133 435.557 130.389C435.954 130.652 436.293 130.985 436.556 131.382Z" fill="#35313F"/>
<path d="M414.293 126.005C412.411 126.632 408.218 128.29 407.655 127.035C407.085 125.781 411.028 120.506 415.406 117.286" stroke="#1D1D1D" stroke-width="2" stroke-linecap="round" stroke-linejoin="round"/>
<path d="M402.905 126.894C404.697 115.212 411.508 110.315 415.535 108.683C417.82 107.755 424.042 107.313 426.57 107.435L429.457 107.492" stroke="#1D1D1D" stroke-width="2" stroke-linecap="round" stroke-linejoin="round"/>
<path d="M382.946 468.198C386.851 481.544 389.93 495.922 389.93 495.922L394.859 523.242C394.859 523.242 410.676 527.761 410.676 526.525C410.676 525.296 409.306 494.001 409.306 494.001L409.985 466.937L382.946 468.198Z" fill="#FFD3C0"/>
<path opacity="0.6" d="M382.946 468.198C385.154 475.745 387.1 483.625 388.374 489.047L409.543 484.873L409.985 466.931L382.946 468.198Z" fill="#F2B89F"/>
<path d="M483.566 468.224L496.842 496.895L505.861 524.279L519.668 510.977C519.668 510.977 513.645 484.015 510.246 457.835L483.566 468.224Z" fill="#FFD3C0"/>
<path opacity="0.6" d="M510.246 457.835L483.573 468.224L496.849 496.895L496.88 496.997L499.249 492.164C501.374 487.843 505.106 484.528 509.644 482.914L513.876 481.417C512.589 474.023 511.29 465.894 510.246 457.835Z" fill="#F2B89F"/>
<path d="M392.189 256.428C381.653 274.294 372.25 288.914 374.138 311.139C375.533 327.641 380.949 366.26 383.65 385.047C384.642 391.967 384.501 399.002 383.234 405.876C381.326 416.189 378.715 431.59 378.702 438.638C378.67 451.728 381.531 471.175 382.402 476.801C382.472 477.237 382.696 477.627 383.036 477.902C383.375 478.178 383.81 478.318 384.245 478.293L409.46 476.974C410.016 476.949 410.535 476.712 410.932 476.321C411.322 475.937 411.559 475.412 411.591 474.862C412.833 455.018 413.55 443.701 413.729 437.505C413.844 433.613 413.819 425.829 413.78 420.318C413.755 416.182 414.139 412.054 414.933 407.989L416.008 402.477C416.494 399.968 416.789 397.427 416.879 394.866L419.714 314.82C419.714 314.813 419.721 314.801 419.727 314.801C419.727 314.788 419.733 314.788 419.74 314.781C419.746 314.775 419.753 314.775 419.765 314.775C419.772 314.775 419.778 314.781 419.785 314.788C420.265 315.172 423.19 317.54 425.623 319.531C427.338 320.933 428.798 322.623 429.943 324.518L472.786 395.404C475.212 399.424 476.288 404.116 475.846 408.789C474.828 419.607 473.119 439.771 473.657 448.252C474.297 458.424 482.055 473.588 484.264 477.717C484.417 478.011 484.68 478.242 484.993 478.357C485.307 478.472 485.653 478.472 485.966 478.35L512.173 468.326C512.563 468.173 512.896 467.897 513.114 467.539C513.331 467.18 513.421 466.758 513.37 466.342L507.762 418.474C507.353 414.966 507.18 411.439 507.244 407.912L507.385 399.917C507.474 395.039 506.392 390.213 504.229 385.841L498.481 374.223C498.481 374.223 492.028 342.14 459.421 284.184C458.717 282.916 458.128 281.585 457.686 280.202L451.887 262.279C451.887 262.279 401.689 240.259 392.189 256.428Z" fill="#0136A9"/>
<path d="M389.661 263.335C389.661 263.335 422.377 267.567 433.349 268.258C438.316 268.578 453.173 269.295 453.173 269.295L453.826 269.34" stroke="#022C89" stroke-width="2" stroke-linecap="round" stroke-linejoin="round"/>
<path opacity="0.6" d="M413.595 441.013C413.653 439.694 413.697 438.529 413.729 437.505C413.845 433.613 413.819 425.829 413.787 420.318C413.755 416.182 414.139 412.047 414.933 407.989L416.008 402.478L406.042 408.207C403.993 409.384 402.483 411.311 401.83 413.584C401.17 415.85 401.426 418.288 402.534 420.375C405.67 426.283 410.036 434.477 413.595 441.013Z" fill="#022C89"/>
<path opacity="0.6" d="M429.95 324.518L444.103 347.933L441.44 322.476C440.608 314.532 441.043 306.505 442.733 298.708L443.904 293.299C444.039 292.672 443.988 292.019 443.763 291.417C443.533 290.822 443.136 290.31 442.618 289.926C442.106 289.548 441.485 289.337 440.851 289.299C440.211 289.267 439.571 289.42 439.02 289.74C434.655 292.23 430.135 294.42 425.488 296.301C423.779 296.999 422.326 298.183 421.295 299.713C420.271 301.237 419.721 303.035 419.721 304.873V314.73C419.721 314.73 422.966 317.361 425.623 319.531C427.345 320.933 428.804 322.623 429.95 324.518Z" fill="#022C89"/>
<path d="M419.721 314.73L419.887 312.477C420.009 310.858 420.463 309.283 421.231 307.849C421.987 306.421 423.043 305.16 424.317 304.162C427.421 301.729 431.614 298.286 434.258 295.456" stroke="#022C89" stroke-width="2" stroke-linecap="round" stroke-linejoin="round"/>
<path d="M434.258 260.487C430.974 287.525 431.352 297.345 424.317 304.162" stroke="#022C89" stroke-width="2" stroke-linecap="round" stroke-linejoin="round"/>
<path d="M502.334 225.927L488.591 235.215L479.085 239.638C479.079 239.638 479.072 239.645 479.066 239.645C479.06 239.645 479.053 239.638 479.047 239.638C479.04 239.638 479.04 239.632 479.034 239.625C479.027 239.619 479.027 239.612 479.027 239.606C478.829 238.217 475.2 211.895 472.761 194.644C472.287 191.296 470.956 188.134 468.901 185.459C466.84 182.783 464.126 180.69 461.015 179.371C457.334 177.822 455.042 176.766 451.547 175.178L435.557 164.975L433.208 159.041C433.067 158.683 432.824 158.375 432.517 158.151L432.241 157.946C432.229 157.94 432.229 157.94 432.216 157.94C432.209 157.934 432.203 157.94 432.197 157.94C432.19 157.94 432.184 157.946 432.177 157.953C432.177 157.959 432.171 157.966 432.165 157.972C431.108 163.355 428.317 169.789 428.074 170.345C428.068 170.352 428.061 170.358 428.061 170.358C428.055 170.365 428.049 170.371 428.049 170.371C428.036 170.377 428.023 170.377 428.01 170.371C421.551 167.465 411.303 157.665 410.74 157.127C410.74 157.114 410.727 157.114 410.721 157.114C410.708 157.114 410.701 157.114 410.689 157.121L410.183 157.428C409.959 157.569 409.786 157.78 409.696 158.03L408.416 161.595L405.613 163.375C405.184 163.65 404.736 163.887 404.275 164.098L391.351 169.981C391.351 169.981 387.177 171.709 381.807 173.732C378.382 175.025 375.431 177.316 373.331 180.312C371.238 183.308 370.092 186.873 370.06 190.528C369.939 204.797 370.745 226.336 372.019 238.281C372.979 247.255 374.004 255.238 375.335 261.216C375.591 262.369 376.071 263.45 376.756 264.404C377.441 265.364 378.312 266.171 379.317 266.785C380.322 267.394 381.442 267.79 382.607 267.957C383.772 268.123 384.956 268.053 386.089 267.739C394.404 265.448 402.29 260.852 407.45 257.926L451.887 262.279C451.887 262.279 452.565 261.044 453.16 259.847C453.749 258.675 454.069 257.389 454.095 256.083L454.562 230.792C454.562 230.785 454.569 230.772 454.575 230.766C454.581 230.76 454.588 230.753 454.601 230.747C454.613 230.747 454.62 230.753 454.626 230.76C454.639 230.76 454.645 230.772 454.652 230.785C455.292 233.327 459.811 250.789 464.228 259.046C465.7 261.799 467.39 264.769 469.311 267.682C469.823 268.456 470.488 269.109 471.269 269.608C472.057 270.108 472.934 270.441 473.855 270.575C474.771 270.709 475.712 270.652 476.601 270.402C477.498 270.152 478.33 269.724 479.047 269.128C488.54 261.3 497.002 252.985 497.002 252.985L513.184 237.699C517.703 228.372 505.829 222.861 502.334 225.927ZM396.958 239.235L396.024 241.008C396.024 241.014 396.017 241.021 396.011 241.027C396.011 241.027 395.998 241.027 395.992 241.027L393.706 241.341C393.7 241.341 393.694 241.341 393.687 241.341C393.681 241.341 393.674 241.334 393.668 241.328C393.668 241.328 393.662 241.322 393.662 241.315C393.655 241.309 393.655 241.302 393.655 241.302L393.905 226.529C393.905 226.522 393.911 226.516 393.918 226.503C393.924 226.497 393.93 226.49 393.943 226.49C393.95 226.49 393.962 226.49 393.969 226.497C393.982 226.503 393.982 226.509 393.988 226.516L397.221 235.394C397.445 236.015 397.534 236.681 397.496 237.34C397.445 238.006 397.265 238.646 396.958 239.235Z" fill="#5F91FD"/>
<path opacity="0.6" d="M420.604 249.163C422.313 247.326 422.633 244.849 422.025 242.57L405.203 251.359C403.82 252.082 402.418 252.754 400.991 253.375C394.801 256.064 382.664 262.183 375.335 261.217C375.591 262.362 376.071 263.451 376.756 264.404C377.441 265.358 378.311 266.171 379.316 266.779C380.321 267.387 381.442 267.791 382.607 267.957C383.772 268.117 384.956 268.047 386.089 267.739C394.404 265.448 402.29 260.852 407.45 257.926L409.543 256.691C414.088 254.118 416.142 252.313 420.604 249.163Z" fill="#195FF8"/>
<path d="M396.017 241.027L403.244 240.048L413.499 236.739C420.015 235.03 425.098 244.33 420.604 249.163C416.143 252.313 414.088 254.118 409.543 256.691C408.845 257.101 407.45 257.926 407.45 257.926" stroke="#195FF8" stroke-width="2" stroke-linecap="round" stroke-linejoin="round"/>
<path d="M454.652 230.785C454.652 230.785 457.84 223.859 457.827 217.394C457.827 213.47 454.057 203.516 454.057 203.516L456.617 195.214C458.185 190.772 457.724 180.715 457.724 180.715L457.609 178.405" stroke="#195FF8" stroke-width="2" stroke-linecap="round" stroke-linejoin="round"/>
<path opacity="0.6" d="M514.189 233.198L512.506 231.003L497.661 242.493C494.121 245.233 490.351 247.659 486.382 249.739L481.217 252.453C480.058 253.068 478.778 253.407 477.472 253.458C476.166 253.516 474.86 253.279 473.657 252.773C472.447 252.261 471.372 251.493 470.501 250.52C469.631 249.541 468.984 248.388 468.613 247.134C468.209 245.77 467.985 244.842 467.985 244.842L470.168 243.504L465.201 228.615L460.912 201.942C460.861 201.609 460.714 201.301 460.509 201.045C460.298 200.783 460.022 200.585 459.709 200.469C459.395 200.354 459.056 200.316 458.729 200.373C458.396 200.431 458.089 200.572 457.827 200.783L454.057 203.51C454.057 203.51 457.827 213.47 457.827 217.388C457.827 218.617 457.737 219.846 457.552 221.062V221.055C454.921 222.201 452.168 223.091 449.684 223.309C442.573 223.917 439.468 222.419 432.529 222.348C425.584 222.284 416.968 226.112 407.712 222.502L407.635 222.47C405.606 221.644 403.871 220.23 402.649 218.412C401.426 216.594 400.773 214.456 400.773 212.26L400.76 210.545C400.741 207.562 400.53 204.585 400.12 201.628L399.896 200.002C399.807 199.368 399.531 198.767 399.102 198.286C398.68 197.806 398.117 197.461 397.496 197.294C396.868 197.141 396.216 197.166 395.601 197.371C394.993 197.582 394.468 197.973 394.078 198.485L394.519 205.014L394.078 217.944L394.142 217.976L393.911 226.292L397.221 235.388C397.445 236.009 397.541 236.674 397.496 237.34C397.451 237.999 397.272 238.646 396.958 239.228L396.017 241.027L403.244 240.048L407.763 238.582C407.872 237.782 408.224 237.026 408.768 236.425C409.319 235.823 410.029 235.394 410.817 235.208C417.199 233.698 424.746 232.392 431.102 232.661C436.517 232.942 441.843 234.197 446.81 236.373C448.046 236.898 449.403 237.103 450.734 236.962C452.072 236.822 453.352 236.341 454.46 235.573L454.479 235.56L454.562 230.792C454.562 230.779 454.569 230.772 454.575 230.76C454.588 230.753 454.594 230.747 454.601 230.747C454.613 230.747 454.626 230.747 454.633 230.753C454.639 230.76 454.652 230.772 454.652 230.779C455.292 233.32 459.811 250.782 464.228 259.04C465.707 261.792 467.39 264.763 469.31 267.675C469.823 268.45 470.488 269.109 471.276 269.608C472.057 270.108 472.94 270.434 473.855 270.568C474.777 270.709 475.712 270.652 476.608 270.402C477.504 270.152 478.336 269.717 479.053 269.122C488.54 261.3 497.008 252.984 497.008 252.984L513.19 237.692C513.901 236.309 514.247 234.754 514.189 233.198Z" fill="#195FF8"/>
<path d="M393.655 241.347C393.655 241.347 387.632 241.347 384.13 244.254" stroke="#195FF8" stroke-width="2" stroke-linecap="round" stroke-linejoin="round"/>
<path d="M435.557 164.975L436.018 169.117C436.261 171.402 436.383 173.7 436.383 176.004C436.383 176.158 436.344 176.305 436.261 176.44C436.178 176.574 436.063 176.676 435.922 176.747C435.788 176.817 435.628 176.843 435.48 176.83C435.327 176.817 435.173 176.76 435.051 176.67L428.049 170.371L420.63 176.824C419.989 177.259 419.209 177.432 418.447 177.323C417.679 177.22 416.981 176.836 416.482 176.241C410.394 169.027 408.423 166.102 408.423 161.595" stroke="#195FF8" stroke-width="2" stroke-linecap="round" stroke-linejoin="round"/>
<path d="M428.074 170.345L429.182 191.674C430.731 197.704 434.725 208.682 434.809 209.956C435.013 213.31 433.631 218.687 432.53 222.355C431.717 225.024 431.57 227.847 432.082 230.587C432.843 234.613 433.964 240.938 434.809 247.23C435.295 250.885 434.552 258.758 434.552 258.758" stroke="#195FF8" stroke-width="2" stroke-linecap="round" stroke-linejoin="round"/>
<path d="M430.532 185.824C433.054 184.979 434.341 182.015 433.4 179.192C432.459 176.369 429.649 174.762 427.12 175.601C424.598 176.446 423.305 179.416 424.246 182.233C425.187 185.056 428.004 186.662 430.532 185.824Z" fill="#009A94"/>
<path d="M454.057 203.516C455.388 202.703 456.649 201.788 457.827 200.783" stroke="#195FF8" stroke-width="2" stroke-linecap="round" stroke-linejoin="round"/>
<path d="M394.52 205.014C395.499 203.369 396.293 201.622 396.882 199.804" stroke="#195FF8" stroke-width="2" stroke-linecap="round" stroke-linejoin="round"/>
<path d="M393.905 226.528L394.596 202.415C394.603 192.397 383.926 183.359 378.581 178.398L377 176.958" stroke="#195FF8" stroke-width="2" stroke-linecap="round" stroke-linejoin="round"/>
<path d="M502.654 521.859C502.539 521.526 502.532 521.161 502.628 520.822C502.731 520.483 502.929 520.176 503.205 519.952C505.541 518.038 511.628 513.09 514.099 511.374C517.05 509.339 520.59 508.999 522.645 509.012C523.119 509.012 523.567 509.185 523.919 509.492C524.277 509.806 524.508 510.228 524.565 510.696L525.89 520.675C525.89 520.675 525.89 520.688 525.897 520.688C525.903 520.694 525.909 520.701 525.916 520.701L536.119 525.86C536.132 525.86 536.139 525.866 536.145 525.86C541.938 524.983 549.613 522.986 551.252 524.112H552.449C552.462 524.112 552.487 524.112 552.5 524.125C552.513 524.132 552.526 524.144 552.538 524.164C552.762 524.477 553.031 524.765 553.338 525.009C553.082 529.624 547.155 533.202 534.538 540.147C524.412 541.21 525.148 541.255 524.642 541.562C521.48 543.425 518.836 545.089 515.853 547.073C512.55 547.304 507.948 547.726 506.546 547.861C506.002 547.048 505.451 546.228 504.901 545.415C504.901 545.409 504.901 545.403 504.901 545.39C504.901 545.383 504.901 545.377 504.901 545.371L506.066 543.623C506.091 543.585 506.104 543.546 506.117 543.495C506.117 543.45 506.117 543.406 506.104 543.361L505.752 542.183C504.85 539.142 504.498 535.961 504.722 532.792L505.01 528.772C505.01 528.766 505.01 528.76 505.01 528.753L502.654 521.859Z" fill="#009A94"/>
<path d="M505.016 528.76L512.07 524.279" stroke="#1D1D1D" stroke-width="2" stroke-linecap="round" stroke-linejoin="round"/>
<path d="M545.356 527.652C543.353 528.933 541.202 529.963 538.955 530.731L532.823 532.837C530.973 533.471 529.213 534.367 527.619 535.5L524.066 538.01C521.736 539.655 519.125 540.864 516.366 541.581C511.424 542.868 506.469 544.155 504.914 545.371C504.908 545.377 504.901 545.39 504.901 545.397C504.901 545.403 504.901 545.416 504.908 545.422L506.393 548.143C506.393 548.149 506.399 548.155 506.405 548.162C506.412 548.162 506.418 548.162 506.431 548.162H516.212C516.225 548.162 516.231 548.162 516.238 548.162L525.673 542.753C525.673 542.753 525.679 542.746 525.686 542.746L534.948 541.62C534.98 541.613 535.012 541.601 535.044 541.588C535.787 541.165 545.619 535.545 549.741 531.909C553.595 528.517 553.678 525.521 553.652 524.951C553.652 524.919 553.64 524.894 553.627 524.868C553.608 524.842 553.588 524.817 553.569 524.804L552.551 524.138C552.539 524.125 552.526 524.125 552.513 524.119C552.494 524.113 552.475 524.119 552.462 524.119L551.764 524.273C550.65 524.516 549.588 524.964 548.628 525.572L545.356 527.652Z" fill="#0C5956"/>
<path d="M551.296 525.245L549.363 526.737C546.681 528.804 543.711 530.488 540.562 531.73L533.68 534.444C531.485 535.308 529.43 536.511 527.593 538.003L524.949 540.154C522.901 541.811 520.532 543.04 517.998 543.757C512.108 545.428 508.415 547.06 506.546 548.078C506.533 548.085 506.533 548.091 506.527 548.104C506.52 548.11 506.52 548.117 506.52 548.129C506.527 548.142 506.533 548.149 506.539 548.155C506.546 548.161 506.559 548.161 506.565 548.161H516.212C516.224 548.161 516.231 548.161 516.237 548.161L525.673 542.752C525.673 542.746 525.679 542.746 525.685 542.746L534.999 541.613C534.999 541.613 545.459 535.692 549.741 531.909C553.607 528.491 553.678 525.488 553.652 524.944C553.652 524.919 553.639 524.887 553.626 524.868C553.607 524.842 553.588 524.823 553.562 524.81C552.513 524.259 551.296 525.245 551.296 525.245Z" fill="#062B7B"/>
<path d="M392.887 514.037L412.302 519.151C412.647 519.241 412.948 519.446 413.166 519.728C413.377 520.016 413.492 520.361 413.486 520.72L413.249 529.963C413.243 530.341 413.275 530.718 413.358 531.09L413.934 533.701C414.197 534.892 414.286 536.121 414.203 537.344L413.8 542.906C414.728 543.233 414.638 547.163 414.574 547.79C397.803 546.926 391.069 547.24 381.986 547.842C381.813 547.854 381.64 547.829 381.48 547.765C381.327 547.701 381.186 547.605 381.07 547.477C380.962 547.349 380.872 547.195 380.827 547.029C380.789 546.869 380.776 546.689 380.814 546.523C380.91 546.132 381.199 545.979 382.005 545.857C382.005 545.857 382.107 542.292 384.777 541.037C387.267 539.872 388.387 539.379 388.534 539.322C388.541 539.315 388.547 539.309 388.553 539.302L392.029 531.391L390.903 515.676C390.89 515.426 390.928 515.176 391.031 514.94C391.127 514.709 391.28 514.511 391.472 514.344C391.671 514.184 391.895 514.075 392.144 514.018C392.388 513.96 392.644 513.973 392.887 514.037Z" fill="#009A94"/>
<path d="M380.642 546.773L380.558 548.13C380.558 548.13 380.558 548.142 380.558 548.149C380.558 548.149 380.565 548.162 380.571 548.162C380.571 548.168 380.578 548.168 380.584 548.174H380.597H414.856C414.869 548.174 414.881 548.174 414.894 548.162C414.894 548.155 414.901 548.142 414.901 548.13L415.131 543.271C415.131 543.258 415.131 543.252 415.118 543.246C415.118 543.233 415.105 543.233 415.099 543.226L413.8 542.906C413.8 542.906 404.979 545.569 398.763 545.659C392.836 545.742 382.005 545.857 382.005 545.857L381.512 545.896C381.288 545.915 381.07 546.004 380.91 546.171C380.75 546.331 380.654 546.548 380.642 546.773Z" fill="#0C5956"/>
<path d="M388.547 539.315C391.383 538.867 392.989 538.233 396.043 538.758L406.886 540.64" stroke="#1D1D1D" stroke-width="2" stroke-linecap="round" stroke-linejoin="round"/>
<path d="M382.197 282.328C382.197 282.328 401.439 275.786 406.234 265.396" stroke="#022C89" stroke-width="2" stroke-linecap="round" stroke-linejoin="round"/>
<path d="M450.818 269.186L456.585 278.455" stroke="#022C89" stroke-width="2" stroke-linecap="round" stroke-linejoin="round"/>
<path d="M512.595 236.809C512.602 236.809 513.28 237.014 513.287 237.007L515.482 234.441L515.821 234.153C515.834 234.146 515.841 234.14 515.847 234.14L516.967 234.095H516.974L522.651 232.783C522.658 232.783 522.664 232.776 522.671 232.77C522.799 232.629 524.252 230.997 525.078 229.806C525.238 229.582 525.308 229.294 525.289 229.019C525.263 228.737 525.135 228.475 524.943 228.276C524.86 228.199 524.802 228.148 524.77 228.11C524.758 228.103 524.757 228.097 524.751 228.084C524.751 228.065 524.757 228.059 524.764 228.052L525.007 227.771C525.199 227.559 525.321 227.31 525.378 227.034L525.647 225.716C525.647 225.709 525.647 225.703 525.647 225.697C525.449 225.063 524.303 224.109 523.957 223.834C523.945 223.834 523.945 223.821 523.938 223.815C523.938 223.808 523.938 223.795 523.945 223.789C523.945 223.783 523.951 223.776 523.957 223.77C523.964 223.763 523.977 223.763 523.983 223.763C524.636 223.757 527.67 223.706 528.374 223.002C529.162 222.208 528.598 220.909 528.253 220.23C527.958 219.641 526.991 219.699 526.723 219.724C526.716 219.724 526.71 219.718 526.703 219.718C526.697 219.712 526.691 219.712 526.691 219.705C526.684 219.699 526.678 219.692 526.678 219.68C526.678 219.673 526.678 219.667 526.678 219.66C526.78 219.398 527.132 218.406 526.915 217.759C526.703 217.113 525.436 216.985 525.103 216.959C525.097 216.959 525.09 216.953 525.084 216.953C525.078 216.946 525.071 216.94 525.071 216.933C525.065 216.927 525.065 216.921 525.065 216.914C525.065 216.901 525.071 216.895 525.071 216.889C525.673 216.133 526.166 215.308 526.556 214.424C527.068 213.138 526.383 211.844 525.718 212.504C525.084 213.131 524.002 214.123 523.906 214.219C523.893 214.226 523.893 214.226 523.881 214.226L522.024 214.706C521.896 214.738 521.775 214.783 521.653 214.847L520.994 215.18C520.565 215.397 520.11 215.538 519.637 215.608L516.013 216.108C515.29 216.21 514.612 216.524 514.067 217.017L508.102 222.342L507.314 222.611L503.179 226.356C503.173 226.356 503.173 226.362 503.166 226.369C503.07 226.567 502.603 229.672 504.434 232.719C507.756 238.268 512.358 236.892 512.595 236.809Z" fill="#FFD3C0"/>
<path d="M524.738 228.084C524.738 228.084 520.225 227.316 518.011 226.868C515.796 226.42 517.441 224.064 518.459 223.994C519.477 223.917 520.68 223.859 521.774 223.744" stroke="#F2B89F" stroke-width="2" stroke-linecap="round" stroke-linejoin="round"/>
<path d="M519.297 227.098C517.659 226.772 517.166 228.782 518.721 229.204C520.763 229.755 522.921 230.158 522.921 230.158" stroke="#F2B89F" stroke-width="2" stroke-linecap="round" stroke-linejoin="round"/>
<path d="M516.436 219.039C516.436 219.039 517.819 219.334 519.009 219.449" stroke="#F2B89F" stroke-width="2" stroke-linecap="round" stroke-linejoin="round"/>
<path d="M513.05 227.45C513.12 227.425 516.039 227.021 517.275 226.567" stroke="#F2B89F" stroke-width="2" stroke-linecap="round" stroke-linejoin="round"/>
<path d="M518.459 223.994L520.27 220.255" stroke="#F2B89F" stroke-width="2" stroke-linecap="round" stroke-linejoin="round"/>
<path d="M548.308 211.499H529.795C529.603 211.505 529.418 211.544 529.251 211.62C529.078 211.704 528.931 211.812 528.803 211.953C528.675 212.094 528.579 212.248 528.522 212.427C528.458 212.606 528.432 212.792 528.438 212.984L528.566 214.712C528.566 214.719 528.566 214.725 528.56 214.731C528.56 214.738 528.56 214.744 528.547 214.751C528.547 214.757 528.534 214.757 528.534 214.757C528.522 214.757 528.515 214.757 528.509 214.757C527.19 214.27 525.743 214.29 524.444 214.808C523.138 215.327 522.069 216.306 521.455 217.567C521.448 217.573 521.442 217.58 521.448 217.593C521.448 217.599 521.455 217.605 521.455 217.612C521.461 217.618 521.467 217.625 521.474 217.625C521.48 217.631 521.493 217.631 521.499 217.625C522.652 217.311 523.823 217.087 525.014 216.953H525.02C525.046 216.953 525.225 216.965 525.455 216.997C525.462 216.997 525.468 216.997 525.475 216.997C526.051 216.78 526.672 216.729 527.273 216.85C527.875 216.965 528.425 217.253 528.88 217.663C528.886 217.669 528.893 217.682 528.893 217.689L529.783 227.911C529.783 227.918 529.783 227.924 529.776 227.937C529.776 227.943 529.763 227.95 529.757 227.95C529.744 227.956 529.738 227.956 529.731 227.956C529.719 227.95 529.712 227.95 529.706 227.943L525.481 223.719C525.475 223.712 525.475 223.712 525.468 223.706C525.462 223.706 525.455 223.706 525.449 223.706C525.206 223.712 523.913 223.757 522.248 223.751C522.242 223.751 522.236 223.757 522.223 223.757C522.223 223.763 522.21 223.77 522.21 223.776C522.21 223.783 522.21 223.795 522.21 223.795C522.21 223.808 522.21 223.815 522.216 223.821C522.332 223.962 522.46 224.096 522.588 224.231L530.103 231.746C530.109 231.752 530.115 231.765 530.115 231.771L530.371 235.029V235.036C530.455 235.9 530.858 236.7 531.498 237.283C532.138 237.865 532.977 238.185 533.847 238.185H544.256C545.133 238.198 545.971 237.878 546.618 237.289C547.264 236.707 547.661 235.906 547.731 235.036L549.665 212.984C549.677 212.792 549.658 212.606 549.601 212.427C549.537 212.248 549.447 212.081 549.313 211.94C549.184 211.806 549.031 211.691 548.858 211.614C548.685 211.537 548.5 211.499 548.308 211.499Z" fill="#125EFF"/>
<path d="M526.652 219.724C526.05 220.063 525.391 220.294 524.706 220.415C523.227 220.467 521.742 220.415 520.277 220.255C518.158 219.967 518.996 218.271 520.59 217.893C520.853 217.823 521.39 217.676 521.39 217.676" stroke="#F2B89F" stroke-width="2" stroke-linecap="round" stroke-linejoin="round"/>
<path d="M523.228 220.428C521.211 220.704 520.162 221.421 519.797 221.862C519.31 222.47 519.483 223.546 521.243 223.712C521.423 223.731 521.596 223.744 521.775 223.751" stroke="#F2B89F" stroke-width="2" stroke-linecap="round" stroke-linejoin="round"/>
<path d="M479.034 239.664C476.685 240.554 469.023 243.71 467.339 245.399" stroke="#195FF8" stroke-width="2" stroke-linecap="round" stroke-linejoin="round"/>
<path d="M404.16 227.905C403.948 228.148 403.801 228.443 403.75 228.763C403.699 229.076 403.737 229.403 403.871 229.704C403.999 229.998 404.211 230.248 404.486 230.421C404.755 230.6 405.068 230.696 405.389 230.696H415.189C423.408 231.791 428.388 232.283 437.375 230.696H448.232C449.262 230.696 450.286 230.478 451.234 230.062C452.175 229.646 453.02 229.038 453.724 228.276L472.281 207.997C472.498 207.754 472.639 207.46 472.69 207.146C472.748 206.826 472.703 206.5 472.575 206.205C472.447 205.904 472.23 205.655 471.961 205.482C471.685 205.302 471.372 205.213 471.052 205.213H428.209C427.178 205.213 426.154 205.424 425.213 205.84C424.266 206.256 423.421 206.864 422.723 207.626L404.16 227.905Z" fill="#009A94"/>
<path d="M420.604 249.163V249.157L425.226 244.253C425.226 244.247 425.232 244.247 425.239 244.241L427.249 243.498C427.575 243.376 427.857 243.159 428.049 242.871L434.898 232.693C434.904 232.693 434.904 232.693 434.904 232.687L438.374 229.889C438.732 229.601 439.059 229.275 439.347 228.916L440.23 227.796C440.249 227.77 441.325 226.343 442.042 225.549C442.771 224.755 441.427 223.949 439.776 224.813C438.393 225.536 435.346 227.911 435.301 227.943L432.094 230.574C432.094 230.574 432.088 230.581 432.081 230.581C432.075 230.581 432.069 230.581 432.056 230.581L431.473 230.421C431.467 230.421 431.461 230.421 431.454 230.414C431.448 230.408 431.441 230.401 431.441 230.395C431.441 230.388 431.441 230.382 431.441 230.369C431.441 230.369 431.448 230.356 431.454 230.356L434.904 226.785V226.778C434.936 226.733 436.274 224.755 437.113 223.667C438.195 222.259 437.049 220.486 434.616 222.118C433.362 222.925 432.171 223.827 431.051 224.813L427.761 227.508H427.754L425.027 230.305C424.951 230.382 424.855 230.44 424.746 230.465C424.637 230.491 424.528 230.485 424.426 230.446L423.734 230.203C423.606 230.158 423.497 230.068 423.433 229.953C423.363 229.832 423.337 229.704 423.363 229.563L423.856 226.785V226.778C423.875 226.727 424.925 223.744 425.571 222.457C426.218 221.152 424.598 219.257 422.691 221.612C421.519 223.053 420.175 224.839 419.503 225.728C419.221 226.106 418.991 226.522 418.831 226.964L417.48 230.67C417.48 230.677 417.474 230.683 417.468 230.689C417.461 230.696 417.455 230.696 417.442 230.696H415.195C415.182 230.696 415.176 230.696 415.17 230.709C415.157 230.709 415.157 230.721 415.15 230.728L414.024 235.452C413.781 236.482 413.198 237.404 412.379 238.076C411.982 238.409 411.527 238.793 411.098 239.171C405.894 243.863 411.751 255.379 420.604 249.163Z" fill="#FFD3C0"/>
<path d="M417.468 230.696L416.962 232.072" stroke="#F2B89F" stroke-width="2" stroke-linecap="round" stroke-linejoin="round"/>
<path d="M431.403 230.408L429.246 232.994" stroke="#F2B89F" stroke-width="2" stroke-linecap="round" stroke-linejoin="round"/>
<path d="M434.904 232.693L432.357 234.664L428.612 238.755" stroke="#F2B89F" stroke-width="2" stroke-linecap="round" stroke-linejoin="round"/>
<path d="M425.226 244.247C425.226 244.247 421.263 244.868 419.561 243.658" stroke="#F2B89F" stroke-width="2" stroke-linecap="round" stroke-linejoin="round"/>
<path d="M430.731 212.241C432.497 212.017 433.874 211.402 433.81 210.865C433.739 210.333 432.254 210.084 430.487 210.301C428.714 210.525 427.344 211.146 427.408 211.678C427.472 212.209 428.964 212.465 430.731 212.241Z" fill="#024E4C"/>
<path d="M430.628 211.422C431.653 211.294 432.446 210.935 432.408 210.628C432.37 210.321 431.512 210.174 430.488 210.302C429.47 210.436 428.676 210.788 428.714 211.102C428.753 211.403 429.611 211.55 430.628 211.422Z" fill="black"/>
<path d="M419.804 254.374L438.617 259.962" stroke="#195FF8" stroke-width="2" stroke-linecap="round" stroke-linejoin="round"/>
<path d="M502.692 225.325C501.489 227.009 501.207 230.83 503.934 234.396C507.41 238.934 511.475 239.222 512.595 238.556C513.466 237.987 514.234 237.27 514.861 236.438C515.29 235.894 515.514 235.215 515.482 234.524C515.482 234.517 515.482 234.505 515.475 234.498C515.469 234.492 515.469 234.492 515.456 234.485C515.45 234.479 515.443 234.479 515.437 234.479C515.431 234.479 515.418 234.485 515.418 234.492L515.309 234.575C515.053 234.799 514.739 234.953 514.413 235.036C514.08 235.119 513.734 235.125 513.408 235.055C509.279 234.101 504.946 228.948 506.898 223.783C507.045 223.405 507.282 223.066 507.596 222.797L508.088 222.387C508.088 222.381 508.095 222.374 508.101 222.362C508.101 222.355 508.101 222.349 508.101 222.342C508.101 222.336 508.095 222.323 508.088 222.323C508.082 222.317 508.076 222.31 508.063 222.31C507.999 222.297 507.884 222.278 507.736 222.259C507.148 222.201 506.546 222.329 506.027 222.624C504.145 223.693 503.352 224.397 502.692 225.325Z" fill="#009A94"/>
<path opacity="0.6" d="M428.881 153.766C427.21 155.367 424.182 155.501 421.507 153.83C419.004 152.269 416.098 149.708 414.414 148.133C413.422 147.205 412.641 146.079 412.142 144.811C411.988 144.44 411.841 144.062 411.7 143.691L411.431 147.359C413.467 151.865 418.172 162.594 424.483 162.901C427.511 163.055 430.372 159.143 432.165 154.515L432.152 150.009C431.153 151.34 430.059 152.595 428.881 153.766Z" fill="#F2B89F"/>
<path d="M432.152 150.009L430.999 151.462C430.334 152.269 429.63 153.037 428.887 153.766C427.21 155.367 424.182 155.501 421.506 153.83C419.004 152.269 416.104 149.708 414.414 148.133C413.774 147.538 413.217 146.853 412.769 146.098C412.346 145.33 411.994 144.523 411.706 143.697" stroke="#F2B89F" stroke-width="2" stroke-linecap="round" stroke-linejoin="round"/>
<path d="M420.867 135.754C420.707 135.754 420.56 135.69 420.444 135.581L420.214 135.35C419.772 134.922 419.235 134.614 418.646 134.454L417.391 134.115C417.314 134.089 417.237 134.057 417.18 134.006C417.116 133.961 417.065 133.897 417.02 133.827C416.981 133.763 416.956 133.686 416.943 133.603C416.93 133.526 416.937 133.449 416.962 133.372C416.981 133.289 417.02 133.219 417.065 133.161C417.116 133.097 417.173 133.046 417.244 133.008C417.314 132.963 417.391 132.937 417.468 132.924C417.545 132.918 417.628 132.924 417.705 132.944L418.959 133.283C419.753 133.501 420.47 133.917 421.059 134.486L421.296 134.717C421.379 134.8 421.437 134.909 421.462 135.024C421.481 135.146 421.475 135.267 421.424 135.376C421.385 135.485 421.309 135.581 421.206 135.651C421.104 135.715 420.988 135.754 420.867 135.754Z" fill="#363240"/>
<path d="M431.569 135.754C431.454 135.754 431.339 135.722 431.236 135.658C431.14 135.594 431.064 135.498 431.012 135.389C430.968 135.28 430.955 135.165 430.974 135.049C430.993 134.934 431.044 134.825 431.128 134.736L431.505 134.326C431.921 133.872 432.453 133.539 433.035 133.36L434.399 132.95C434.475 132.924 434.559 132.918 434.635 132.924C434.712 132.937 434.789 132.956 434.866 132.995C434.93 133.033 434.994 133.084 435.045 133.148C435.096 133.206 435.128 133.276 435.154 133.353C435.18 133.43 435.186 133.513 435.18 133.59C435.167 133.673 435.148 133.744 435.109 133.814C435.071 133.884 435.019 133.942 434.955 134C434.891 134.051 434.827 134.089 434.751 134.109L433.387 134.518C433.003 134.633 432.657 134.851 432.395 135.146L432.017 135.562C431.953 135.619 431.889 135.67 431.813 135.702C431.736 135.734 431.652 135.754 431.569 135.754Z" fill="#363240"/>
<path d="M420.201 54.7021L416.014 47.136C415.669 46.5983 415.995 45.7725 416.655 45.7149L429.572 42.5271C429.572 42.5271 429.668 42.4887 429.713 42.5847L431.332 45.5421L431.377 45.6381L421.884 54.8878C421.289 55.3743 420.585 55.3359 420.201 54.7021Z" fill="#00FFF5"/>
<path d="M472.838 34.6859C477.997 31.5365 484.238 26.6652 490.012 21.7683C498.826 6.18151 480.897 5.10611 480.999 5.42617C473.632 7.69858 466.283 10.5343 460.823 13.2356C436.889 25.0713 420.086 39.8836 419.094 40.7734C419.094 40.7734 418.998 40.8118 419.036 40.9078L423.101 48.186L427.204 55.5601C427.204 55.5601 449.371 49.1781 472.838 34.6859Z" fill="#125EFF"/>
<path d="M481.095 5.38122C480.999 5.42603 481.095 5.38122 481.095 5.38122C480.999 5.42603 481.262 5.31081 481.095 5.38122L489.967 21.6722C489.967 21.6722 490.031 21.8066 490.012 21.7682C490.012 21.7682 490.012 21.7682 490.108 21.7298C500.625 12.7234 509.868 2.89117 508.62 0.80439C507.43 -1.42962 494.301 1.27807 481.095 5.38122Z" fill="#0136A9"/>
<path d="M444.116 26.1786C441.869 26.0058 439.667 25.929 437.586 26.1402C433.144 26.4603 428.836 27.8685 425.085 30.2881L406.541 42.4248C406.106 42.7256 405.977 43.2377 406.189 43.7178C406.355 44.1083 406.771 44.2683 407.194 44.1979L419.938 42.4632L444.359 27.7917C445.223 27.414 444.961 26.2682 444.116 26.1786Z" fill="#00FFF5"/>
<path d="M452.917 42.0408C451.918 43.9612 450.728 45.9584 449.505 47.6355C446.855 51.2905 443.405 54.1582 439.404 56.0018L419.279 65.2771C418.799 65.4819 418.248 65.2643 418.037 64.7842C417.871 64.4001 417.896 63.9264 418.146 63.7088L426.455 53.8254L451.854 40.9014C452.443 40.4149 453.25 41.2087 452.917 42.0408Z" fill="#00FFF5"/>
<path d="M463.505 25.0009C464.907 28.2463 468.683 29.7314 471.922 28.3359C475.168 26.9276 476.666 23.1638 475.257 19.9184C473.855 16.6666 470.085 15.1751 466.84 16.577C463.601 17.9788 462.103 21.7491 463.505 25.0009Z" fill="#BCBCBC"/>
<path d="M5.36687 345.334C5.98138 345.673 6.49347 346.173 6.86474 346.768C7.22961 347.37 7.44085 348.055 7.47286 348.752C7.61369 351.146 8.12578 353.502 8.97073 355.742C9.23958 356.395 9.3228 357.106 9.23959 357.804C9.14997 358.501 8.88111 359.161 8.46503 359.724L5.80215 363.219C5.39887 363.75 5.18764 364.41 5.21325 365.082C5.24526 365.748 5.50771 366.388 5.95579 366.887L10.9615 372.418C11.4096 372.917 12.0177 373.243 12.6834 373.339C13.3491 373.429 14.0213 373.288 14.5974 372.936L18.3932 370.606C18.995 370.254 19.6735 370.056 20.3648 370.03C21.0625 370.011 21.7539 370.164 22.3748 370.484C24.5192 371.502 26.7916 372.225 29.1344 372.629C29.8321 372.731 30.4851 373.006 31.0356 373.429C31.5925 373.858 32.0341 374.415 32.3094 375.055L34.0441 379.209C34.3002 379.83 34.7738 380.336 35.3627 380.643C35.9581 380.957 36.643 381.053 37.3023 380.905L44.5932 379.337C45.2461 379.196 45.835 378.831 46.2511 378.307C46.6608 377.775 46.8784 377.122 46.8592 376.45L46.7312 371.95C46.7248 371.253 46.8976 370.568 47.2241 369.953C47.5634 369.339 48.0434 368.814 48.6324 368.436C50.5975 367.105 52.3706 365.511 53.9133 363.699C54.3486 363.155 54.9119 362.733 55.5584 362.464C56.1985 362.201 56.8963 362.099 57.594 362.176L62.0108 362.745C62.6765 362.829 63.355 362.681 63.9183 362.323C64.4816 361.958 64.9105 361.414 65.109 360.774L67.4006 353.675C67.6054 353.035 67.5862 352.343 67.3302 351.723C67.0805 351.102 66.626 350.583 66.0307 350.263L62.1644 348.176C61.5563 347.837 61.0442 347.338 60.6729 346.742C60.3017 346.141 60.0969 345.456 60.0648 344.752C59.924 342.364 59.4183 340.002 58.5606 337.768C58.3045 337.115 58.2085 336.405 58.3045 335.707C58.3877 335.009 58.6566 334.35 59.0791 333.78L61.7355 330.285C62.1452 329.754 62.3501 329.094 62.3245 328.429C62.2989 327.757 62.0364 327.116 61.5819 326.617L56.5826 321.093C56.1281 320.594 55.5136 320.267 54.8543 320.171C54.1886 320.075 53.5165 320.216 52.9468 320.568L49.1445 322.905C48.5491 323.257 47.8642 323.455 47.1729 323.481C46.4752 323.5 45.7838 323.346 45.1693 323.026C43.0185 322.008 40.7397 321.285 38.4033 320.882C37.712 320.773 37.0591 320.498 36.5022 320.075C35.9453 319.653 35.51 319.096 35.2283 318.456L33.4936 314.301C33.2376 313.68 32.7703 313.175 32.175 312.861C31.5797 312.554 30.8947 312.458 30.2354 312.599L22.9445 314.167C22.2915 314.308 21.7027 314.679 21.293 315.204C20.8769 315.729 20.6593 316.388 20.6785 317.06L20.8065 321.554C20.8129 322.258 20.6465 322.943 20.3136 323.557C19.9807 324.172 19.5006 324.697 18.9117 325.075C16.9466 326.406 15.1671 328 13.6308 329.811C13.1955 330.349 12.6258 330.778 11.9857 331.047C11.3392 331.309 10.6414 331.412 9.95011 331.335L5.5269 330.765C4.86118 330.682 4.18907 330.829 3.61937 331.188C3.05606 331.546 2.63358 332.097 2.42874 332.737L0.137129 339.836C-0.0677079 340.469 -0.0421126 341.167 0.207533 341.788C0.457178 342.409 0.918061 342.921 1.50697 343.241L5.36687 345.334ZM31.3236 335.406C33.5704 334.926 35.9132 335.118 38.0448 335.963C40.1764 336.808 42.0136 338.267 43.3194 340.162C44.6252 342.05 45.3422 344.284 45.3742 346.576C45.4126 348.874 44.7661 351.127 43.5242 353.054C42.276 354.987 40.4837 356.504 38.3713 357.413C36.2653 358.329 33.9353 358.591 31.6757 358.175C29.4161 357.765 27.3357 356.69 25.6842 355.09C24.0391 353.489 22.8997 351.441 22.4196 349.194C21.7731 346.186 22.3492 343.043 24.0199 340.456C25.6842 337.87 28.3215 336.053 31.3236 335.406Z" fill="#8461FD"/>
<path d="M570.603 419.511C556.873 419.511 545.632 408.335 545.632 394.54C545.632 380.746 556.809 369.569 570.603 369.569C584.34 369.569 595.574 380.746 595.574 394.54C595.574 408.335 584.34 419.511 570.603 419.511ZM570.603 380.925C563.056 380.925 556.93 387.051 556.93 394.598C556.93 402.151 563.056 408.277 570.603 408.277C578.156 408.277 584.282 402.151 584.282 394.598C584.282 387.051 578.156 380.925 570.603 380.925Z" fill="#009A94"/>
<path d="M89.7087 271.247C75.9782 271.247 64.7378 260.071 64.7378 246.276C64.7378 232.482 75.9206 221.305 89.7087 221.305C103.446 221.305 114.68 232.482 114.68 246.276C114.68 260.071 103.446 271.247 89.7087 271.247ZM89.7087 232.661C82.1618 232.661 76.0358 238.787 76.0358 246.334C76.0358 253.887 82.1618 260.007 89.7087 260.007C97.2621 260.007 103.388 253.887 103.388 246.334C103.388 238.787 97.2621 232.661 89.7087 232.661Z" fill="#009A94"/>
<path d="M134.274 10.9309C134.274 10.2844 134.018 9.6763 133.557 9.21541C133.102 8.76733 132.488 8.50488 131.848 8.50488H93.6455C93.0054 8.50488 92.3908 8.76733 91.9364 9.21541C91.4819 9.6763 91.2258 10.2844 91.2258 10.9309V49.1331C91.2258 49.7796 91.4819 50.3941 91.9364 50.8486C92.3908 51.3031 93.0054 51.5591 93.6455 51.5591H105.494C106.614 51.5591 107.715 51.9368 108.605 52.6153C109.488 53.3067 110.135 54.2668 110.423 55.355L111.889 60.8856C111.934 61.0777 112.042 61.2441 112.202 61.3657C112.356 61.4873 112.548 61.5513 112.747 61.5513C112.945 61.5513 113.131 61.4873 113.291 61.3657C113.444 61.2441 113.553 61.0777 113.611 60.8856L115.07 55.355C115.352 54.2668 115.998 53.3067 116.895 52.6153C117.784 51.9368 118.872 51.5591 120.005 51.5591H131.848C132.488 51.5591 133.102 51.3031 133.557 50.8486C134.018 50.3941 134.274 49.7796 134.274 49.1331V10.9309Z" fill="#8461FD"/>
<path d="M111.748 41.81L124.902 22.0368C125.101 21.7423 125.242 21.4031 125.306 21.051C125.382 20.699 125.382 20.3341 125.306 19.982C125.235 19.63 125.094 19.2907 124.889 18.9962C124.697 18.689 124.441 18.4457 124.134 18.2409C123.84 18.0361 123.5 17.9017 123.148 17.8376C122.803 17.7608 122.431 17.7608 122.079 17.8376C121.734 17.9081 121.388 18.0489 121.094 18.2473C120.793 18.4458 120.543 18.7018 120.338 19.0026L109.539 35.2424C109.527 35.2552 109.507 35.2616 109.501 35.2744C109.488 35.2808 109.475 35.2808 109.456 35.2808C109.443 35.2808 109.424 35.2808 109.418 35.2744C109.399 35.2616 109.392 35.2552 109.379 35.2424L105.161 28.8924C104.751 28.2843 104.124 27.8683 103.42 27.721C102.697 27.5866 101.96 27.721 101.352 28.1307C100.751 28.534 100.328 29.1613 100.194 29.8718C100.047 30.5824 100.194 31.3249 100.597 31.9266L107.171 41.81C107.414 42.1877 107.76 42.4885 108.157 42.7126C108.56 42.9238 109.002 43.0326 109.456 43.0326C109.917 43.0326 110.359 42.9238 110.756 42.7126C111.159 42.4885 111.498 42.1877 111.748 41.81Z" fill="#00FFF5"/>
</svg>
