<svg width="176" height="48" viewBox="0 0 176 48" fill="none" xmlns="http://www.w3.org/2000/svg">
<path d="M67.1055 28.3284L64.0214 31.2284V35.8749H59.8762V11.4227H64.0214V26.1863L72.6103 18.2773H77.5846L70.1895 25.6591L78.281 35.8749H73.2404L67.1055 28.3284Z" fill="white"/>
<path d="M86.6471 32.6124C88.5705 32.6124 90.1733 31.9753 91.4556 30.7011L93.6442 33.2386C92.8705 34.1833 91.8756 34.8973 90.6597 35.3806C89.4437 35.8639 88.073 36.1056 86.5476 36.1056C84.6021 36.1056 82.8888 35.7211 81.4075 34.9522C79.9263 34.1833 78.7767 33.1177 77.9587 31.7556C77.1628 30.3715 76.7649 28.8117 76.7649 27.0761C76.7649 25.3625 77.1518 23.8246 77.9255 22.4625C78.7214 21.0784 79.8047 20.0019 81.1754 19.2329C82.5682 18.464 84.1379 18.0795 85.8844 18.0795C87.5425 18.0795 89.0458 18.442 90.3944 19.167C91.7651 19.8701 92.8483 20.8916 93.6442 22.2318C94.4401 23.55 94.8381 25.0988 94.8381 26.8784L81.2749 29.5147C81.6949 30.5253 82.3692 31.2943 83.2978 31.8215C84.2263 32.3488 85.3427 32.6124 86.6471 32.6124ZM85.8844 21.375C84.3589 21.375 83.1209 21.8693 82.1703 22.8579C81.2417 23.8466 80.7775 25.1757 80.7775 26.8454V26.8784L90.7923 24.967C90.5049 23.8905 89.9191 23.0227 89.0347 22.3636C88.1725 21.7045 87.1224 21.375 85.8844 21.375Z" fill="white"/>
<path d="M106.647 18.0795C108.371 18.0795 109.908 18.453 111.256 19.2C112.627 19.9469 113.699 21.0015 114.473 22.3636C115.247 23.7257 115.634 25.2966 115.634 27.0761C115.634 28.8556 115.247 30.4374 114.473 31.8215C113.699 33.1836 112.627 34.2382 111.256 34.9852C109.908 35.7321 108.371 36.1056 106.647 36.1056C104.259 36.1056 102.369 35.3147 100.976 33.7329V42.2681H96.8309V18.2773H100.777V20.5841C101.462 19.7492 102.303 19.1231 103.297 18.7057C104.314 18.2882 105.431 18.0795 106.647 18.0795ZM106.182 32.5795C107.708 32.5795 108.957 32.0742 109.93 31.0636C110.925 30.053 111.422 28.7238 111.422 27.0761C111.422 25.4284 110.925 24.0992 109.93 23.0886C108.957 22.078 107.708 21.5727 106.182 21.5727C105.188 21.5727 104.292 21.8034 103.496 22.2647C102.701 22.7041 102.07 23.3413 101.606 24.1761C101.142 25.0109 100.91 25.9776 100.91 27.0761C100.91 28.1746 101.142 29.1412 101.606 29.9761C102.07 30.8109 102.701 31.459 103.496 31.9204C104.292 32.3598 105.188 32.5795 106.182 32.5795Z" fill="white"/>
<path d="M127.391 18.0795C129.115 18.0795 130.652 18.453 132 19.2C133.371 19.9469 134.443 21.0015 135.217 22.3636C135.991 23.7257 136.378 25.2966 136.378 27.0761C136.378 28.8556 135.991 30.4374 135.217 31.8215C134.443 33.1836 133.371 34.2382 132 34.9852C130.652 35.7321 129.115 36.1056 127.391 36.1056C125.003 36.1056 123.113 35.3147 121.72 33.7329V42.2681H117.575V18.2773H121.521V20.5841C122.207 19.7492 123.047 19.1231 124.042 18.7057C125.059 18.2882 126.175 18.0795 127.391 18.0795ZM126.927 32.5795C128.452 32.5795 129.701 32.0742 130.674 31.0636C131.669 30.053 132.166 28.7238 132.166 27.0761C132.166 25.4284 131.669 24.0992 130.674 23.0886C129.701 22.078 128.452 21.5727 126.927 21.5727C125.932 21.5727 125.037 21.8034 124.241 22.2647C123.445 22.7041 122.815 23.3413 122.35 24.1761C121.886 25.0109 121.654 25.9776 121.654 27.0761C121.654 28.1746 121.886 29.1412 122.35 29.9761C122.815 30.8109 123.445 31.459 124.241 31.9204C125.037 32.3598 125.932 32.5795 126.927 32.5795Z" fill="white"/>
<path d="M144.156 36.1056C142.321 36.1056 140.884 35.6113 139.845 34.6227C138.828 33.6121 138.319 32.195 138.319 30.3715V11.4227H142.465V30.0749C142.465 31.8325 143.294 32.7113 144.952 32.7113C145.504 32.7113 146.002 32.6015 146.444 32.3818L146.643 35.6772C145.869 35.9628 145.04 36.1056 144.156 36.1056Z" fill="white"/>
<path d="M155.569 32.6124C157.493 32.6124 159.095 31.9753 160.378 30.7011L162.566 33.2386C161.793 34.1833 160.798 34.8973 159.582 35.3806C158.366 35.8639 156.995 36.1056 155.47 36.1056C153.524 36.1056 151.811 35.7211 150.33 34.9522C148.848 34.1833 147.699 33.1177 146.881 31.7556C146.085 30.3715 145.687 28.8117 145.687 27.0761C145.687 25.3625 146.074 23.8246 146.848 22.4625C147.644 21.0784 148.727 20.0019 150.097 19.2329C151.49 18.464 153.06 18.0795 154.806 18.0795C156.465 18.0795 157.968 18.442 159.316 19.167C160.687 19.8701 161.77 20.8916 162.566 22.2318C163.362 23.55 163.76 25.0988 163.76 26.8784L150.197 29.5147C150.617 30.5253 151.291 31.2943 152.22 31.8215C153.148 32.3488 154.265 32.6124 155.569 32.6124ZM154.806 21.375C153.281 21.375 152.043 21.8693 151.092 22.8579C150.164 23.8466 149.7 25.1757 149.7 26.8454V26.8784L159.714 24.967C159.427 23.8905 158.841 23.0227 157.957 22.3636C157.095 21.7045 156.044 21.375 154.806 21.375Z" fill="white"/>
<path d="M169.699 20.8477C170.893 19.0023 172.993 18.0795 176 18.0795V22.0011C175.646 21.9352 175.326 21.9022 175.038 21.9022C173.424 21.9022 172.164 22.3746 171.258 23.3193C170.351 24.242 169.898 25.5822 169.898 27.3397V35.8749H165.753V18.2773H169.699V20.8477Z" fill="white"/>
<path opacity="0.5" d="M0 25.0309H13.6082V47.7113H0V25.0309Z" fill="white"/>
<path opacity="0.7" d="M16.3298 12.3298H29.9381V35.0102H16.3298V12.3298Z" fill="white"/>
<path opacity="0.9" d="M32.6599 0.536133H47.1754V23.2165H32.6599V0.536133Z" fill="white"/>
</svg>